%TF.GenerationSoftware,KiCad,Pcbnew,9.0.0*%
%TF.CreationDate,2025-04-30T17:52:17+02:00*%
%TF.ProjectId,PUTM_EV_VOLTAGE_INDICATOR_2024,5055544d-5f45-4565-9f56-4f4c54414745,rev?*%
%TF.SameCoordinates,Original*%
%TF.FileFunction,Legend,Bot*%
%TF.FilePolarity,Positive*%
%FSLAX46Y46*%
G04 Gerber Fmt 4.6, Leading zero omitted, Abs format (unit mm)*
G04 Created by KiCad (PCBNEW 9.0.0) date 2025-04-30 17:52:17*
%MOMM*%
%LPD*%
G01*
G04 APERTURE LIST*
%ADD10C,0.200000*%
%ADD11C,0.000000*%
G04 APERTURE END LIST*
D10*
X104000000Y-55000000D02*
X137000000Y-55000000D01*
X137000000Y-65000000D01*
X104000000Y-65000000D01*
X104000000Y-55000000D01*
X119323064Y-69273052D02*
X119084969Y-69939719D01*
X119084969Y-69939719D02*
X118846874Y-69273052D01*
X117942112Y-69939719D02*
X118513540Y-69939719D01*
X118227826Y-69939719D02*
X118227826Y-68939719D01*
X118227826Y-68939719D02*
X118323064Y-69082576D01*
X118323064Y-69082576D02*
X118418302Y-69177814D01*
X118418302Y-69177814D02*
X118513540Y-69225433D01*
X117513540Y-69844480D02*
X117465921Y-69892100D01*
X117465921Y-69892100D02*
X117513540Y-69939719D01*
X117513540Y-69939719D02*
X117561159Y-69892100D01*
X117561159Y-69892100D02*
X117513540Y-69844480D01*
X117513540Y-69844480D02*
X117513540Y-69939719D01*
X116513541Y-69939719D02*
X117084969Y-69939719D01*
X116799255Y-69939719D02*
X116799255Y-68939719D01*
X116799255Y-68939719D02*
X116894493Y-69082576D01*
X116894493Y-69082576D02*
X116989731Y-69177814D01*
X116989731Y-69177814D02*
X117084969Y-69225433D01*
X104000000Y-68000000D02*
X120500000Y-68000000D01*
X120500000Y-71000000D01*
X104000000Y-71000000D01*
X104000000Y-68000000D01*
X135727826Y-69939719D02*
X135727826Y-68939719D01*
X135727826Y-68939719D02*
X135346874Y-68939719D01*
X135346874Y-68939719D02*
X135251636Y-68987338D01*
X135251636Y-68987338D02*
X135204017Y-69034957D01*
X135204017Y-69034957D02*
X135156398Y-69130195D01*
X135156398Y-69130195D02*
X135156398Y-69273052D01*
X135156398Y-69273052D02*
X135204017Y-69368290D01*
X135204017Y-69368290D02*
X135251636Y-69415909D01*
X135251636Y-69415909D02*
X135346874Y-69463528D01*
X135346874Y-69463528D02*
X135727826Y-69463528D01*
X134727826Y-69939719D02*
X134727826Y-69273052D01*
X134727826Y-68939719D02*
X134775445Y-68987338D01*
X134775445Y-68987338D02*
X134727826Y-69034957D01*
X134727826Y-69034957D02*
X134680207Y-68987338D01*
X134680207Y-68987338D02*
X134727826Y-68939719D01*
X134727826Y-68939719D02*
X134727826Y-69034957D01*
X134108779Y-69939719D02*
X134204017Y-69892100D01*
X134204017Y-69892100D02*
X134251636Y-69844480D01*
X134251636Y-69844480D02*
X134299255Y-69749242D01*
X134299255Y-69749242D02*
X134299255Y-69463528D01*
X134299255Y-69463528D02*
X134251636Y-69368290D01*
X134251636Y-69368290D02*
X134204017Y-69320671D01*
X134204017Y-69320671D02*
X134108779Y-69273052D01*
X134108779Y-69273052D02*
X133965922Y-69273052D01*
X133965922Y-69273052D02*
X133870684Y-69320671D01*
X133870684Y-69320671D02*
X133823065Y-69368290D01*
X133823065Y-69368290D02*
X133775446Y-69463528D01*
X133775446Y-69463528D02*
X133775446Y-69749242D01*
X133775446Y-69749242D02*
X133823065Y-69844480D01*
X133823065Y-69844480D02*
X133870684Y-69892100D01*
X133870684Y-69892100D02*
X133965922Y-69939719D01*
X133965922Y-69939719D02*
X134108779Y-69939719D01*
X133489731Y-69273052D02*
X133108779Y-69273052D01*
X133346874Y-68939719D02*
X133346874Y-69796861D01*
X133346874Y-69796861D02*
X133299255Y-69892100D01*
X133299255Y-69892100D02*
X133204017Y-69939719D01*
X133204017Y-69939719D02*
X133108779Y-69939719D01*
X132775445Y-69939719D02*
X132775445Y-69273052D01*
X132775445Y-69463528D02*
X132727826Y-69368290D01*
X132727826Y-69368290D02*
X132680207Y-69320671D01*
X132680207Y-69320671D02*
X132584969Y-69273052D01*
X132584969Y-69273052D02*
X132489731Y-69273052D01*
X130918302Y-69939719D02*
X131394492Y-69939719D01*
X131394492Y-69939719D02*
X131394492Y-68939719D01*
X130204016Y-69892100D02*
X130299254Y-69939719D01*
X130299254Y-69939719D02*
X130489730Y-69939719D01*
X130489730Y-69939719D02*
X130584968Y-69892100D01*
X130584968Y-69892100D02*
X130632587Y-69796861D01*
X130632587Y-69796861D02*
X130632587Y-69415909D01*
X130632587Y-69415909D02*
X130584968Y-69320671D01*
X130584968Y-69320671D02*
X130489730Y-69273052D01*
X130489730Y-69273052D02*
X130299254Y-69273052D01*
X130299254Y-69273052D02*
X130204016Y-69320671D01*
X130204016Y-69320671D02*
X130156397Y-69415909D01*
X130156397Y-69415909D02*
X130156397Y-69511147D01*
X130156397Y-69511147D02*
X130632587Y-69606385D01*
X129775444Y-69892100D02*
X129680206Y-69939719D01*
X129680206Y-69939719D02*
X129489730Y-69939719D01*
X129489730Y-69939719D02*
X129394492Y-69892100D01*
X129394492Y-69892100D02*
X129346873Y-69796861D01*
X129346873Y-69796861D02*
X129346873Y-69749242D01*
X129346873Y-69749242D02*
X129394492Y-69654004D01*
X129394492Y-69654004D02*
X129489730Y-69606385D01*
X129489730Y-69606385D02*
X129632587Y-69606385D01*
X129632587Y-69606385D02*
X129727825Y-69558766D01*
X129727825Y-69558766D02*
X129775444Y-69463528D01*
X129775444Y-69463528D02*
X129775444Y-69415909D01*
X129775444Y-69415909D02*
X129727825Y-69320671D01*
X129727825Y-69320671D02*
X129632587Y-69273052D01*
X129632587Y-69273052D02*
X129489730Y-69273052D01*
X129489730Y-69273052D02*
X129394492Y-69320671D01*
X128918301Y-69939719D02*
X128918301Y-69273052D01*
X128918301Y-68939719D02*
X128965920Y-68987338D01*
X128965920Y-68987338D02*
X128918301Y-69034957D01*
X128918301Y-69034957D02*
X128870682Y-68987338D01*
X128870682Y-68987338D02*
X128918301Y-68939719D01*
X128918301Y-68939719D02*
X128918301Y-69034957D01*
X128013540Y-69892100D02*
X128108778Y-69939719D01*
X128108778Y-69939719D02*
X128299254Y-69939719D01*
X128299254Y-69939719D02*
X128394492Y-69892100D01*
X128394492Y-69892100D02*
X128442111Y-69844480D01*
X128442111Y-69844480D02*
X128489730Y-69749242D01*
X128489730Y-69749242D02*
X128489730Y-69463528D01*
X128489730Y-69463528D02*
X128442111Y-69368290D01*
X128442111Y-69368290D02*
X128394492Y-69320671D01*
X128394492Y-69320671D02*
X128299254Y-69273052D01*
X128299254Y-69273052D02*
X128108778Y-69273052D01*
X128108778Y-69273052D02*
X128013540Y-69320671D01*
X127584968Y-69939719D02*
X127584968Y-68939719D01*
X127489730Y-69558766D02*
X127204016Y-69939719D01*
X127204016Y-69273052D02*
X127584968Y-69654004D01*
X126775444Y-69939719D02*
X126775444Y-69273052D01*
X126775444Y-68939719D02*
X126823063Y-68987338D01*
X126823063Y-68987338D02*
X126775444Y-69034957D01*
X126775444Y-69034957D02*
X126727825Y-68987338D01*
X126727825Y-68987338D02*
X126775444Y-68939719D01*
X126775444Y-68939719D02*
X126775444Y-69034957D01*
X120500000Y-68000000D02*
X137000000Y-68000000D01*
X137000000Y-71000000D01*
X120500000Y-71000000D01*
X120500000Y-68000000D01*
X135775445Y-71939719D02*
X135775445Y-72130195D01*
X135394493Y-71939719D02*
X135394493Y-72130195D01*
X134489731Y-72939719D02*
X134965921Y-72939719D01*
X134965921Y-72939719D02*
X134965921Y-71939719D01*
X133727826Y-72939719D02*
X133727826Y-72415909D01*
X133727826Y-72415909D02*
X133775445Y-72320671D01*
X133775445Y-72320671D02*
X133870683Y-72273052D01*
X133870683Y-72273052D02*
X134061159Y-72273052D01*
X134061159Y-72273052D02*
X134156397Y-72320671D01*
X133727826Y-72892100D02*
X133823064Y-72939719D01*
X133823064Y-72939719D02*
X134061159Y-72939719D01*
X134061159Y-72939719D02*
X134156397Y-72892100D01*
X134156397Y-72892100D02*
X134204016Y-72796861D01*
X134204016Y-72796861D02*
X134204016Y-72701623D01*
X134204016Y-72701623D02*
X134156397Y-72606385D01*
X134156397Y-72606385D02*
X134061159Y-72558766D01*
X134061159Y-72558766D02*
X133823064Y-72558766D01*
X133823064Y-72558766D02*
X133727826Y-72511147D01*
X133346873Y-72273052D02*
X132823064Y-72273052D01*
X132823064Y-72273052D02*
X133346873Y-72939719D01*
X133346873Y-72939719D02*
X132823064Y-72939719D01*
X132442111Y-72939719D02*
X132442111Y-72273052D01*
X132442111Y-71939719D02*
X132489730Y-71987338D01*
X132489730Y-71987338D02*
X132442111Y-72034957D01*
X132442111Y-72034957D02*
X132394492Y-71987338D01*
X132394492Y-71987338D02*
X132442111Y-71939719D01*
X132442111Y-71939719D02*
X132442111Y-72034957D01*
X131965921Y-72273052D02*
X131965921Y-72939719D01*
X131965921Y-72368290D02*
X131918302Y-72320671D01*
X131918302Y-72320671D02*
X131823064Y-72273052D01*
X131823064Y-72273052D02*
X131680207Y-72273052D01*
X131680207Y-72273052D02*
X131584969Y-72320671D01*
X131584969Y-72320671D02*
X131537350Y-72415909D01*
X131537350Y-72415909D02*
X131537350Y-72939719D01*
X130680207Y-72892100D02*
X130775445Y-72939719D01*
X130775445Y-72939719D02*
X130965921Y-72939719D01*
X130965921Y-72939719D02*
X131061159Y-72892100D01*
X131061159Y-72892100D02*
X131108778Y-72796861D01*
X131108778Y-72796861D02*
X131108778Y-72415909D01*
X131108778Y-72415909D02*
X131061159Y-72320671D01*
X131061159Y-72320671D02*
X130965921Y-72273052D01*
X130965921Y-72273052D02*
X130775445Y-72273052D01*
X130775445Y-72273052D02*
X130680207Y-72320671D01*
X130680207Y-72320671D02*
X130632588Y-72415909D01*
X130632588Y-72415909D02*
X130632588Y-72511147D01*
X130632588Y-72511147D02*
X131108778Y-72606385D01*
X130251635Y-72892100D02*
X130156397Y-72939719D01*
X130156397Y-72939719D02*
X129965921Y-72939719D01*
X129965921Y-72939719D02*
X129870683Y-72892100D01*
X129870683Y-72892100D02*
X129823064Y-72796861D01*
X129823064Y-72796861D02*
X129823064Y-72749242D01*
X129823064Y-72749242D02*
X129870683Y-72654004D01*
X129870683Y-72654004D02*
X129965921Y-72606385D01*
X129965921Y-72606385D02*
X130108778Y-72606385D01*
X130108778Y-72606385D02*
X130204016Y-72558766D01*
X130204016Y-72558766D02*
X130251635Y-72463528D01*
X130251635Y-72463528D02*
X130251635Y-72415909D01*
X130251635Y-72415909D02*
X130204016Y-72320671D01*
X130204016Y-72320671D02*
X130108778Y-72273052D01*
X130108778Y-72273052D02*
X129965921Y-72273052D01*
X129965921Y-72273052D02*
X129870683Y-72320671D01*
X129442111Y-72892100D02*
X129346873Y-72939719D01*
X129346873Y-72939719D02*
X129156397Y-72939719D01*
X129156397Y-72939719D02*
X129061159Y-72892100D01*
X129061159Y-72892100D02*
X129013540Y-72796861D01*
X129013540Y-72796861D02*
X129013540Y-72749242D01*
X129013540Y-72749242D02*
X129061159Y-72654004D01*
X129061159Y-72654004D02*
X129156397Y-72606385D01*
X129156397Y-72606385D02*
X129299254Y-72606385D01*
X129299254Y-72606385D02*
X129394492Y-72558766D01*
X129394492Y-72558766D02*
X129442111Y-72463528D01*
X129442111Y-72463528D02*
X129442111Y-72415909D01*
X129442111Y-72415909D02*
X129394492Y-72320671D01*
X129394492Y-72320671D02*
X129299254Y-72273052D01*
X129299254Y-72273052D02*
X129156397Y-72273052D01*
X129156397Y-72273052D02*
X129061159Y-72320671D01*
X127823063Y-72939719D02*
X127823063Y-72273052D01*
X127823063Y-71939719D02*
X127870682Y-71987338D01*
X127870682Y-71987338D02*
X127823063Y-72034957D01*
X127823063Y-72034957D02*
X127775444Y-71987338D01*
X127775444Y-71987338D02*
X127823063Y-71939719D01*
X127823063Y-71939719D02*
X127823063Y-72034957D01*
X127394492Y-72892100D02*
X127299254Y-72939719D01*
X127299254Y-72939719D02*
X127108778Y-72939719D01*
X127108778Y-72939719D02*
X127013540Y-72892100D01*
X127013540Y-72892100D02*
X126965921Y-72796861D01*
X126965921Y-72796861D02*
X126965921Y-72749242D01*
X126965921Y-72749242D02*
X127013540Y-72654004D01*
X127013540Y-72654004D02*
X127108778Y-72606385D01*
X127108778Y-72606385D02*
X127251635Y-72606385D01*
X127251635Y-72606385D02*
X127346873Y-72558766D01*
X127346873Y-72558766D02*
X127394492Y-72463528D01*
X127394492Y-72463528D02*
X127394492Y-72415909D01*
X127394492Y-72415909D02*
X127346873Y-72320671D01*
X127346873Y-72320671D02*
X127251635Y-72273052D01*
X127251635Y-72273052D02*
X127108778Y-72273052D01*
X127108778Y-72273052D02*
X127013540Y-72320671D01*
X125823063Y-72892100D02*
X125727825Y-72939719D01*
X125727825Y-72939719D02*
X125537349Y-72939719D01*
X125537349Y-72939719D02*
X125442111Y-72892100D01*
X125442111Y-72892100D02*
X125394492Y-72796861D01*
X125394492Y-72796861D02*
X125394492Y-72749242D01*
X125394492Y-72749242D02*
X125442111Y-72654004D01*
X125442111Y-72654004D02*
X125537349Y-72606385D01*
X125537349Y-72606385D02*
X125680206Y-72606385D01*
X125680206Y-72606385D02*
X125775444Y-72558766D01*
X125775444Y-72558766D02*
X125823063Y-72463528D01*
X125823063Y-72463528D02*
X125823063Y-72415909D01*
X125823063Y-72415909D02*
X125775444Y-72320671D01*
X125775444Y-72320671D02*
X125680206Y-72273052D01*
X125680206Y-72273052D02*
X125537349Y-72273052D01*
X125537349Y-72273052D02*
X125442111Y-72320671D01*
X124537349Y-72273052D02*
X124537349Y-72939719D01*
X124965920Y-72273052D02*
X124965920Y-72796861D01*
X124965920Y-72796861D02*
X124918301Y-72892100D01*
X124918301Y-72892100D02*
X124823063Y-72939719D01*
X124823063Y-72939719D02*
X124680206Y-72939719D01*
X124680206Y-72939719D02*
X124584968Y-72892100D01*
X124584968Y-72892100D02*
X124537349Y-72844480D01*
X123632587Y-72892100D02*
X123727825Y-72939719D01*
X123727825Y-72939719D02*
X123918301Y-72939719D01*
X123918301Y-72939719D02*
X124013539Y-72892100D01*
X124013539Y-72892100D02*
X124061158Y-72844480D01*
X124061158Y-72844480D02*
X124108777Y-72749242D01*
X124108777Y-72749242D02*
X124108777Y-72463528D01*
X124108777Y-72463528D02*
X124061158Y-72368290D01*
X124061158Y-72368290D02*
X124013539Y-72320671D01*
X124013539Y-72320671D02*
X123918301Y-72273052D01*
X123918301Y-72273052D02*
X123727825Y-72273052D01*
X123727825Y-72273052D02*
X123632587Y-72320671D01*
X123204015Y-72939719D02*
X123204015Y-71939719D01*
X122775444Y-72939719D02*
X122775444Y-72415909D01*
X122775444Y-72415909D02*
X122823063Y-72320671D01*
X122823063Y-72320671D02*
X122918301Y-72273052D01*
X122918301Y-72273052D02*
X123061158Y-72273052D01*
X123061158Y-72273052D02*
X123156396Y-72320671D01*
X123156396Y-72320671D02*
X123204015Y-72368290D01*
X121108777Y-72939719D02*
X121108777Y-72415909D01*
X121108777Y-72415909D02*
X121156396Y-72320671D01*
X121156396Y-72320671D02*
X121251634Y-72273052D01*
X121251634Y-72273052D02*
X121442110Y-72273052D01*
X121442110Y-72273052D02*
X121537348Y-72320671D01*
X121108777Y-72892100D02*
X121204015Y-72939719D01*
X121204015Y-72939719D02*
X121442110Y-72939719D01*
X121442110Y-72939719D02*
X121537348Y-72892100D01*
X121537348Y-72892100D02*
X121584967Y-72796861D01*
X121584967Y-72796861D02*
X121584967Y-72701623D01*
X121584967Y-72701623D02*
X121537348Y-72606385D01*
X121537348Y-72606385D02*
X121442110Y-72558766D01*
X121442110Y-72558766D02*
X121204015Y-72558766D01*
X121204015Y-72558766D02*
X121108777Y-72511147D01*
X120632586Y-72273052D02*
X120632586Y-72939719D01*
X120632586Y-72368290D02*
X120584967Y-72320671D01*
X120584967Y-72320671D02*
X120489729Y-72273052D01*
X120489729Y-72273052D02*
X120346872Y-72273052D01*
X120346872Y-72273052D02*
X120251634Y-72320671D01*
X120251634Y-72320671D02*
X120204015Y-72415909D01*
X120204015Y-72415909D02*
X120204015Y-72939719D01*
X118537348Y-72273052D02*
X118537348Y-72939719D01*
X118965919Y-72273052D02*
X118965919Y-72796861D01*
X118965919Y-72796861D02*
X118918300Y-72892100D01*
X118918300Y-72892100D02*
X118823062Y-72939719D01*
X118823062Y-72939719D02*
X118680205Y-72939719D01*
X118680205Y-72939719D02*
X118584967Y-72892100D01*
X118584967Y-72892100D02*
X118537348Y-72844480D01*
X117632586Y-72273052D02*
X117632586Y-73082576D01*
X117632586Y-73082576D02*
X117680205Y-73177814D01*
X117680205Y-73177814D02*
X117727824Y-73225433D01*
X117727824Y-73225433D02*
X117823062Y-73273052D01*
X117823062Y-73273052D02*
X117965919Y-73273052D01*
X117965919Y-73273052D02*
X118061157Y-73225433D01*
X117632586Y-72892100D02*
X117727824Y-72939719D01*
X117727824Y-72939719D02*
X117918300Y-72939719D01*
X117918300Y-72939719D02*
X118013538Y-72892100D01*
X118013538Y-72892100D02*
X118061157Y-72844480D01*
X118061157Y-72844480D02*
X118108776Y-72749242D01*
X118108776Y-72749242D02*
X118108776Y-72463528D01*
X118108776Y-72463528D02*
X118061157Y-72368290D01*
X118061157Y-72368290D02*
X118013538Y-72320671D01*
X118013538Y-72320671D02*
X117918300Y-72273052D01*
X117918300Y-72273052D02*
X117727824Y-72273052D01*
X117727824Y-72273052D02*
X117632586Y-72320671D01*
X117013538Y-72939719D02*
X117108776Y-72892100D01*
X117108776Y-72892100D02*
X117156395Y-72796861D01*
X117156395Y-72796861D02*
X117156395Y-71939719D01*
X116727823Y-72273052D02*
X116489728Y-72939719D01*
X116251633Y-72273052D02*
X116489728Y-72939719D01*
X116489728Y-72939719D02*
X116584966Y-73177814D01*
X116584966Y-73177814D02*
X116632585Y-73225433D01*
X116632585Y-73225433D02*
X116727823Y-73273052D01*
X115204013Y-72273052D02*
X115013537Y-72939719D01*
X115013537Y-72939719D02*
X114823061Y-72463528D01*
X114823061Y-72463528D02*
X114632585Y-72939719D01*
X114632585Y-72939719D02*
X114442109Y-72273052D01*
X113918299Y-72939719D02*
X114013537Y-72892100D01*
X114013537Y-72892100D02*
X114061156Y-72844480D01*
X114061156Y-72844480D02*
X114108775Y-72749242D01*
X114108775Y-72749242D02*
X114108775Y-72463528D01*
X114108775Y-72463528D02*
X114061156Y-72368290D01*
X114061156Y-72368290D02*
X114013537Y-72320671D01*
X114013537Y-72320671D02*
X113918299Y-72273052D01*
X113918299Y-72273052D02*
X113775442Y-72273052D01*
X113775442Y-72273052D02*
X113680204Y-72320671D01*
X113680204Y-72320671D02*
X113632585Y-72368290D01*
X113632585Y-72368290D02*
X113584966Y-72463528D01*
X113584966Y-72463528D02*
X113584966Y-72749242D01*
X113584966Y-72749242D02*
X113632585Y-72844480D01*
X113632585Y-72844480D02*
X113680204Y-72892100D01*
X113680204Y-72892100D02*
X113775442Y-72939719D01*
X113775442Y-72939719D02*
X113918299Y-72939719D01*
X113156394Y-72939719D02*
X113156394Y-72273052D01*
X113156394Y-72463528D02*
X113108775Y-72368290D01*
X113108775Y-72368290D02*
X113061156Y-72320671D01*
X113061156Y-72320671D02*
X112965918Y-72273052D01*
X112965918Y-72273052D02*
X112870680Y-72273052D01*
X112108775Y-72939719D02*
X112108775Y-71939719D01*
X112108775Y-72892100D02*
X112204013Y-72939719D01*
X112204013Y-72939719D02*
X112394489Y-72939719D01*
X112394489Y-72939719D02*
X112489727Y-72892100D01*
X112489727Y-72892100D02*
X112537346Y-72844480D01*
X112537346Y-72844480D02*
X112584965Y-72749242D01*
X112584965Y-72749242D02*
X112584965Y-72463528D01*
X112584965Y-72463528D02*
X112537346Y-72368290D01*
X112537346Y-72368290D02*
X112489727Y-72320671D01*
X112489727Y-72320671D02*
X112394489Y-72273052D01*
X112394489Y-72273052D02*
X112204013Y-72273052D01*
X112204013Y-72273052D02*
X112108775Y-72320671D01*
X111584965Y-72892100D02*
X111584965Y-72939719D01*
X111584965Y-72939719D02*
X111632584Y-73034957D01*
X111632584Y-73034957D02*
X111680203Y-73082576D01*
X135727826Y-74549663D02*
X135727826Y-73549663D01*
X134489731Y-73882996D02*
X134489731Y-74882996D01*
X134489731Y-73930615D02*
X134394493Y-73882996D01*
X134394493Y-73882996D02*
X134204017Y-73882996D01*
X134204017Y-73882996D02*
X134108779Y-73930615D01*
X134108779Y-73930615D02*
X134061160Y-73978234D01*
X134061160Y-73978234D02*
X134013541Y-74073472D01*
X134013541Y-74073472D02*
X134013541Y-74359186D01*
X134013541Y-74359186D02*
X134061160Y-74454424D01*
X134061160Y-74454424D02*
X134108779Y-74502044D01*
X134108779Y-74502044D02*
X134204017Y-74549663D01*
X134204017Y-74549663D02*
X134394493Y-74549663D01*
X134394493Y-74549663D02*
X134489731Y-74502044D01*
X133584969Y-74549663D02*
X133584969Y-73882996D01*
X133584969Y-74073472D02*
X133537350Y-73978234D01*
X133537350Y-73978234D02*
X133489731Y-73930615D01*
X133489731Y-73930615D02*
X133394493Y-73882996D01*
X133394493Y-73882996D02*
X133299255Y-73882996D01*
X132584969Y-74502044D02*
X132680207Y-74549663D01*
X132680207Y-74549663D02*
X132870683Y-74549663D01*
X132870683Y-74549663D02*
X132965921Y-74502044D01*
X132965921Y-74502044D02*
X133013540Y-74406805D01*
X133013540Y-74406805D02*
X133013540Y-74025853D01*
X133013540Y-74025853D02*
X132965921Y-73930615D01*
X132965921Y-73930615D02*
X132870683Y-73882996D01*
X132870683Y-73882996D02*
X132680207Y-73882996D01*
X132680207Y-73882996D02*
X132584969Y-73930615D01*
X132584969Y-73930615D02*
X132537350Y-74025853D01*
X132537350Y-74025853D02*
X132537350Y-74121091D01*
X132537350Y-74121091D02*
X133013540Y-74216329D01*
X132251635Y-73882996D02*
X131870683Y-73882996D01*
X132108778Y-74549663D02*
X132108778Y-73692520D01*
X132108778Y-73692520D02*
X132061159Y-73597282D01*
X132061159Y-73597282D02*
X131965921Y-73549663D01*
X131965921Y-73549663D02*
X131870683Y-73549663D01*
X131156397Y-74502044D02*
X131251635Y-74549663D01*
X131251635Y-74549663D02*
X131442111Y-74549663D01*
X131442111Y-74549663D02*
X131537349Y-74502044D01*
X131537349Y-74502044D02*
X131584968Y-74406805D01*
X131584968Y-74406805D02*
X131584968Y-74025853D01*
X131584968Y-74025853D02*
X131537349Y-73930615D01*
X131537349Y-73930615D02*
X131442111Y-73882996D01*
X131442111Y-73882996D02*
X131251635Y-73882996D01*
X131251635Y-73882996D02*
X131156397Y-73930615D01*
X131156397Y-73930615D02*
X131108778Y-74025853D01*
X131108778Y-74025853D02*
X131108778Y-74121091D01*
X131108778Y-74121091D02*
X131584968Y-74216329D01*
X130680206Y-74549663D02*
X130680206Y-73882996D01*
X130680206Y-74073472D02*
X130632587Y-73978234D01*
X130632587Y-73978234D02*
X130584968Y-73930615D01*
X130584968Y-73930615D02*
X130489730Y-73882996D01*
X130489730Y-73882996D02*
X130394492Y-73882996D01*
X129346872Y-74502044D02*
X129251634Y-74549663D01*
X129251634Y-74549663D02*
X129061158Y-74549663D01*
X129061158Y-74549663D02*
X128965920Y-74502044D01*
X128965920Y-74502044D02*
X128918301Y-74406805D01*
X128918301Y-74406805D02*
X128918301Y-74359186D01*
X128918301Y-74359186D02*
X128965920Y-74263948D01*
X128965920Y-74263948D02*
X129061158Y-74216329D01*
X129061158Y-74216329D02*
X129204015Y-74216329D01*
X129204015Y-74216329D02*
X129299253Y-74168710D01*
X129299253Y-74168710D02*
X129346872Y-74073472D01*
X129346872Y-74073472D02*
X129346872Y-74025853D01*
X129346872Y-74025853D02*
X129299253Y-73930615D01*
X129299253Y-73930615D02*
X129204015Y-73882996D01*
X129204015Y-73882996D02*
X129061158Y-73882996D01*
X129061158Y-73882996D02*
X128965920Y-73930615D01*
X128108777Y-74502044D02*
X128204015Y-74549663D01*
X128204015Y-74549663D02*
X128394491Y-74549663D01*
X128394491Y-74549663D02*
X128489729Y-74502044D01*
X128489729Y-74502044D02*
X128537348Y-74406805D01*
X128537348Y-74406805D02*
X128537348Y-74025853D01*
X128537348Y-74025853D02*
X128489729Y-73930615D01*
X128489729Y-73930615D02*
X128394491Y-73882996D01*
X128394491Y-73882996D02*
X128204015Y-73882996D01*
X128204015Y-73882996D02*
X128108777Y-73930615D01*
X128108777Y-73930615D02*
X128061158Y-74025853D01*
X128061158Y-74025853D02*
X128061158Y-74121091D01*
X128061158Y-74121091D02*
X128537348Y-74216329D01*
X127489729Y-74549663D02*
X127584967Y-74502044D01*
X127584967Y-74502044D02*
X127632586Y-74406805D01*
X127632586Y-74406805D02*
X127632586Y-73549663D01*
X126727824Y-74502044D02*
X126823062Y-74549663D01*
X126823062Y-74549663D02*
X127013538Y-74549663D01*
X127013538Y-74549663D02*
X127108776Y-74502044D01*
X127108776Y-74502044D02*
X127156395Y-74406805D01*
X127156395Y-74406805D02*
X127156395Y-74025853D01*
X127156395Y-74025853D02*
X127108776Y-73930615D01*
X127108776Y-73930615D02*
X127013538Y-73882996D01*
X127013538Y-73882996D02*
X126823062Y-73882996D01*
X126823062Y-73882996D02*
X126727824Y-73930615D01*
X126727824Y-73930615D02*
X126680205Y-74025853D01*
X126680205Y-74025853D02*
X126680205Y-74121091D01*
X126680205Y-74121091D02*
X127156395Y-74216329D01*
X125823062Y-74502044D02*
X125918300Y-74549663D01*
X125918300Y-74549663D02*
X126108776Y-74549663D01*
X126108776Y-74549663D02*
X126204014Y-74502044D01*
X126204014Y-74502044D02*
X126251633Y-74454424D01*
X126251633Y-74454424D02*
X126299252Y-74359186D01*
X126299252Y-74359186D02*
X126299252Y-74073472D01*
X126299252Y-74073472D02*
X126251633Y-73978234D01*
X126251633Y-73978234D02*
X126204014Y-73930615D01*
X126204014Y-73930615D02*
X126108776Y-73882996D01*
X126108776Y-73882996D02*
X125918300Y-73882996D01*
X125918300Y-73882996D02*
X125823062Y-73930615D01*
X125537347Y-73882996D02*
X125156395Y-73882996D01*
X125394490Y-73549663D02*
X125394490Y-74406805D01*
X125394490Y-74406805D02*
X125346871Y-74502044D01*
X125346871Y-74502044D02*
X125251633Y-74549663D01*
X125251633Y-74549663D02*
X125156395Y-74549663D01*
X124823061Y-74549663D02*
X124823061Y-73882996D01*
X124823061Y-73549663D02*
X124870680Y-73597282D01*
X124870680Y-73597282D02*
X124823061Y-73644901D01*
X124823061Y-73644901D02*
X124775442Y-73597282D01*
X124775442Y-73597282D02*
X124823061Y-73549663D01*
X124823061Y-73549663D02*
X124823061Y-73644901D01*
X124442109Y-73882996D02*
X124204014Y-74549663D01*
X124204014Y-74549663D02*
X123965919Y-73882996D01*
X123204014Y-74502044D02*
X123299252Y-74549663D01*
X123299252Y-74549663D02*
X123489728Y-74549663D01*
X123489728Y-74549663D02*
X123584966Y-74502044D01*
X123584966Y-74502044D02*
X123632585Y-74406805D01*
X123632585Y-74406805D02*
X123632585Y-74025853D01*
X123632585Y-74025853D02*
X123584966Y-73930615D01*
X123584966Y-73930615D02*
X123489728Y-73882996D01*
X123489728Y-73882996D02*
X123299252Y-73882996D01*
X123299252Y-73882996D02*
X123204014Y-73930615D01*
X123204014Y-73930615D02*
X123156395Y-74025853D01*
X123156395Y-74025853D02*
X123156395Y-74121091D01*
X123156395Y-74121091D02*
X123632585Y-74216329D01*
X121965918Y-73882996D02*
X121965918Y-74882996D01*
X121965918Y-73930615D02*
X121870680Y-73882996D01*
X121870680Y-73882996D02*
X121680204Y-73882996D01*
X121680204Y-73882996D02*
X121584966Y-73930615D01*
X121584966Y-73930615D02*
X121537347Y-73978234D01*
X121537347Y-73978234D02*
X121489728Y-74073472D01*
X121489728Y-74073472D02*
X121489728Y-74359186D01*
X121489728Y-74359186D02*
X121537347Y-74454424D01*
X121537347Y-74454424D02*
X121584966Y-74502044D01*
X121584966Y-74502044D02*
X121680204Y-74549663D01*
X121680204Y-74549663D02*
X121870680Y-74549663D01*
X121870680Y-74549663D02*
X121965918Y-74502044D01*
X120632585Y-74549663D02*
X120632585Y-74025853D01*
X120632585Y-74025853D02*
X120680204Y-73930615D01*
X120680204Y-73930615D02*
X120775442Y-73882996D01*
X120775442Y-73882996D02*
X120965918Y-73882996D01*
X120965918Y-73882996D02*
X121061156Y-73930615D01*
X120632585Y-74502044D02*
X120727823Y-74549663D01*
X120727823Y-74549663D02*
X120965918Y-74549663D01*
X120965918Y-74549663D02*
X121061156Y-74502044D01*
X121061156Y-74502044D02*
X121108775Y-74406805D01*
X121108775Y-74406805D02*
X121108775Y-74311567D01*
X121108775Y-74311567D02*
X121061156Y-74216329D01*
X121061156Y-74216329D02*
X120965918Y-74168710D01*
X120965918Y-74168710D02*
X120727823Y-74168710D01*
X120727823Y-74168710D02*
X120632585Y-74121091D01*
X120156394Y-74549663D02*
X120156394Y-73882996D01*
X120156394Y-74073472D02*
X120108775Y-73978234D01*
X120108775Y-73978234D02*
X120061156Y-73930615D01*
X120061156Y-73930615D02*
X119965918Y-73882996D01*
X119965918Y-73882996D02*
X119870680Y-73882996D01*
X119680203Y-73882996D02*
X119299251Y-73882996D01*
X119537346Y-73549663D02*
X119537346Y-74406805D01*
X119537346Y-74406805D02*
X119489727Y-74502044D01*
X119489727Y-74502044D02*
X119394489Y-74549663D01*
X119394489Y-74549663D02*
X119299251Y-74549663D01*
X118965917Y-74549663D02*
X118965917Y-73882996D01*
X118965917Y-73549663D02*
X119013536Y-73597282D01*
X119013536Y-73597282D02*
X118965917Y-73644901D01*
X118965917Y-73644901D02*
X118918298Y-73597282D01*
X118918298Y-73597282D02*
X118965917Y-73549663D01*
X118965917Y-73549663D02*
X118965917Y-73644901D01*
X118061156Y-74502044D02*
X118156394Y-74549663D01*
X118156394Y-74549663D02*
X118346870Y-74549663D01*
X118346870Y-74549663D02*
X118442108Y-74502044D01*
X118442108Y-74502044D02*
X118489727Y-74454424D01*
X118489727Y-74454424D02*
X118537346Y-74359186D01*
X118537346Y-74359186D02*
X118537346Y-74073472D01*
X118537346Y-74073472D02*
X118489727Y-73978234D01*
X118489727Y-73978234D02*
X118442108Y-73930615D01*
X118442108Y-73930615D02*
X118346870Y-73882996D01*
X118346870Y-73882996D02*
X118156394Y-73882996D01*
X118156394Y-73882996D02*
X118061156Y-73930615D01*
X117632584Y-74549663D02*
X117632584Y-73882996D01*
X117632584Y-73549663D02*
X117680203Y-73597282D01*
X117680203Y-73597282D02*
X117632584Y-73644901D01*
X117632584Y-73644901D02*
X117584965Y-73597282D01*
X117584965Y-73597282D02*
X117632584Y-73549663D01*
X117632584Y-73549663D02*
X117632584Y-73644901D01*
X117156394Y-73882996D02*
X117156394Y-74882996D01*
X117156394Y-73930615D02*
X117061156Y-73882996D01*
X117061156Y-73882996D02*
X116870680Y-73882996D01*
X116870680Y-73882996D02*
X116775442Y-73930615D01*
X116775442Y-73930615D02*
X116727823Y-73978234D01*
X116727823Y-73978234D02*
X116680204Y-74073472D01*
X116680204Y-74073472D02*
X116680204Y-74359186D01*
X116680204Y-74359186D02*
X116727823Y-74454424D01*
X116727823Y-74454424D02*
X116775442Y-74502044D01*
X116775442Y-74502044D02*
X116870680Y-74549663D01*
X116870680Y-74549663D02*
X117061156Y-74549663D01*
X117061156Y-74549663D02*
X117156394Y-74502044D01*
X115823061Y-74549663D02*
X115823061Y-74025853D01*
X115823061Y-74025853D02*
X115870680Y-73930615D01*
X115870680Y-73930615D02*
X115965918Y-73882996D01*
X115965918Y-73882996D02*
X116156394Y-73882996D01*
X116156394Y-73882996D02*
X116251632Y-73930615D01*
X115823061Y-74502044D02*
X115918299Y-74549663D01*
X115918299Y-74549663D02*
X116156394Y-74549663D01*
X116156394Y-74549663D02*
X116251632Y-74502044D01*
X116251632Y-74502044D02*
X116299251Y-74406805D01*
X116299251Y-74406805D02*
X116299251Y-74311567D01*
X116299251Y-74311567D02*
X116251632Y-74216329D01*
X116251632Y-74216329D02*
X116156394Y-74168710D01*
X116156394Y-74168710D02*
X115918299Y-74168710D01*
X115918299Y-74168710D02*
X115823061Y-74121091D01*
X115489727Y-73882996D02*
X115108775Y-73882996D01*
X115346870Y-73549663D02*
X115346870Y-74406805D01*
X115346870Y-74406805D02*
X115299251Y-74502044D01*
X115299251Y-74502044D02*
X115204013Y-74549663D01*
X115204013Y-74549663D02*
X115108775Y-74549663D01*
X114775441Y-74549663D02*
X114775441Y-73882996D01*
X114775441Y-73549663D02*
X114823060Y-73597282D01*
X114823060Y-73597282D02*
X114775441Y-73644901D01*
X114775441Y-73644901D02*
X114727822Y-73597282D01*
X114727822Y-73597282D02*
X114775441Y-73549663D01*
X114775441Y-73549663D02*
X114775441Y-73644901D01*
X114156394Y-74549663D02*
X114251632Y-74502044D01*
X114251632Y-74502044D02*
X114299251Y-74454424D01*
X114299251Y-74454424D02*
X114346870Y-74359186D01*
X114346870Y-74359186D02*
X114346870Y-74073472D01*
X114346870Y-74073472D02*
X114299251Y-73978234D01*
X114299251Y-73978234D02*
X114251632Y-73930615D01*
X114251632Y-73930615D02*
X114156394Y-73882996D01*
X114156394Y-73882996D02*
X114013537Y-73882996D01*
X114013537Y-73882996D02*
X113918299Y-73930615D01*
X113918299Y-73930615D02*
X113870680Y-73978234D01*
X113870680Y-73978234D02*
X113823061Y-74073472D01*
X113823061Y-74073472D02*
X113823061Y-74359186D01*
X113823061Y-74359186D02*
X113870680Y-74454424D01*
X113870680Y-74454424D02*
X113918299Y-74502044D01*
X113918299Y-74502044D02*
X114013537Y-74549663D01*
X114013537Y-74549663D02*
X114156394Y-74549663D01*
X113394489Y-73882996D02*
X113394489Y-74549663D01*
X113394489Y-73978234D02*
X113346870Y-73930615D01*
X113346870Y-73930615D02*
X113251632Y-73882996D01*
X113251632Y-73882996D02*
X113108775Y-73882996D01*
X113108775Y-73882996D02*
X113013537Y-73930615D01*
X113013537Y-73930615D02*
X112965918Y-74025853D01*
X112965918Y-74025853D02*
X112965918Y-74549663D01*
X112489727Y-74454424D02*
X112442108Y-74502044D01*
X112442108Y-74502044D02*
X112489727Y-74549663D01*
X112489727Y-74549663D02*
X112537346Y-74502044D01*
X112537346Y-74502044D02*
X112489727Y-74454424D01*
X112489727Y-74454424D02*
X112489727Y-74549663D01*
X112061156Y-73549663D02*
X112061156Y-73740139D01*
X111680204Y-73549663D02*
X111680204Y-73740139D01*
X104000000Y-71000000D02*
X137000000Y-71000000D01*
X137000000Y-75500000D01*
X104000000Y-75500000D01*
X104000000Y-71000000D01*
X135870683Y-65939719D02*
X135537350Y-66939719D01*
X135537350Y-66939719D02*
X135204017Y-65939719D01*
X134727826Y-66939719D02*
X134823064Y-66892100D01*
X134823064Y-66892100D02*
X134870683Y-66844480D01*
X134870683Y-66844480D02*
X134918302Y-66749242D01*
X134918302Y-66749242D02*
X134918302Y-66463528D01*
X134918302Y-66463528D02*
X134870683Y-66368290D01*
X134870683Y-66368290D02*
X134823064Y-66320671D01*
X134823064Y-66320671D02*
X134727826Y-66273052D01*
X134727826Y-66273052D02*
X134584969Y-66273052D01*
X134584969Y-66273052D02*
X134489731Y-66320671D01*
X134489731Y-66320671D02*
X134442112Y-66368290D01*
X134442112Y-66368290D02*
X134394493Y-66463528D01*
X134394493Y-66463528D02*
X134394493Y-66749242D01*
X134394493Y-66749242D02*
X134442112Y-66844480D01*
X134442112Y-66844480D02*
X134489731Y-66892100D01*
X134489731Y-66892100D02*
X134584969Y-66939719D01*
X134584969Y-66939719D02*
X134727826Y-66939719D01*
X133823064Y-66939719D02*
X133918302Y-66892100D01*
X133918302Y-66892100D02*
X133965921Y-66796861D01*
X133965921Y-66796861D02*
X133965921Y-65939719D01*
X133584968Y-66273052D02*
X133204016Y-66273052D01*
X133442111Y-65939719D02*
X133442111Y-66796861D01*
X133442111Y-66796861D02*
X133394492Y-66892100D01*
X133394492Y-66892100D02*
X133299254Y-66939719D01*
X133299254Y-66939719D02*
X133204016Y-66939719D01*
X132442111Y-66939719D02*
X132442111Y-66415909D01*
X132442111Y-66415909D02*
X132489730Y-66320671D01*
X132489730Y-66320671D02*
X132584968Y-66273052D01*
X132584968Y-66273052D02*
X132775444Y-66273052D01*
X132775444Y-66273052D02*
X132870682Y-66320671D01*
X132442111Y-66892100D02*
X132537349Y-66939719D01*
X132537349Y-66939719D02*
X132775444Y-66939719D01*
X132775444Y-66939719D02*
X132870682Y-66892100D01*
X132870682Y-66892100D02*
X132918301Y-66796861D01*
X132918301Y-66796861D02*
X132918301Y-66701623D01*
X132918301Y-66701623D02*
X132870682Y-66606385D01*
X132870682Y-66606385D02*
X132775444Y-66558766D01*
X132775444Y-66558766D02*
X132537349Y-66558766D01*
X132537349Y-66558766D02*
X132442111Y-66511147D01*
X131537349Y-66273052D02*
X131537349Y-67082576D01*
X131537349Y-67082576D02*
X131584968Y-67177814D01*
X131584968Y-67177814D02*
X131632587Y-67225433D01*
X131632587Y-67225433D02*
X131727825Y-67273052D01*
X131727825Y-67273052D02*
X131870682Y-67273052D01*
X131870682Y-67273052D02*
X131965920Y-67225433D01*
X131537349Y-66892100D02*
X131632587Y-66939719D01*
X131632587Y-66939719D02*
X131823063Y-66939719D01*
X131823063Y-66939719D02*
X131918301Y-66892100D01*
X131918301Y-66892100D02*
X131965920Y-66844480D01*
X131965920Y-66844480D02*
X132013539Y-66749242D01*
X132013539Y-66749242D02*
X132013539Y-66463528D01*
X132013539Y-66463528D02*
X131965920Y-66368290D01*
X131965920Y-66368290D02*
X131918301Y-66320671D01*
X131918301Y-66320671D02*
X131823063Y-66273052D01*
X131823063Y-66273052D02*
X131632587Y-66273052D01*
X131632587Y-66273052D02*
X131537349Y-66320671D01*
X130680206Y-66892100D02*
X130775444Y-66939719D01*
X130775444Y-66939719D02*
X130965920Y-66939719D01*
X130965920Y-66939719D02*
X131061158Y-66892100D01*
X131061158Y-66892100D02*
X131108777Y-66796861D01*
X131108777Y-66796861D02*
X131108777Y-66415909D01*
X131108777Y-66415909D02*
X131061158Y-66320671D01*
X131061158Y-66320671D02*
X130965920Y-66273052D01*
X130965920Y-66273052D02*
X130775444Y-66273052D01*
X130775444Y-66273052D02*
X130680206Y-66320671D01*
X130680206Y-66320671D02*
X130632587Y-66415909D01*
X130632587Y-66415909D02*
X130632587Y-66511147D01*
X130632587Y-66511147D02*
X131108777Y-66606385D01*
X129442110Y-66939719D02*
X129442110Y-66273052D01*
X129442110Y-65939719D02*
X129489729Y-65987338D01*
X129489729Y-65987338D02*
X129442110Y-66034957D01*
X129442110Y-66034957D02*
X129394491Y-65987338D01*
X129394491Y-65987338D02*
X129442110Y-65939719D01*
X129442110Y-65939719D02*
X129442110Y-66034957D01*
X128965920Y-66273052D02*
X128965920Y-66939719D01*
X128965920Y-66368290D02*
X128918301Y-66320671D01*
X128918301Y-66320671D02*
X128823063Y-66273052D01*
X128823063Y-66273052D02*
X128680206Y-66273052D01*
X128680206Y-66273052D02*
X128584968Y-66320671D01*
X128584968Y-66320671D02*
X128537349Y-66415909D01*
X128537349Y-66415909D02*
X128537349Y-66939719D01*
X127632587Y-66939719D02*
X127632587Y-65939719D01*
X127632587Y-66892100D02*
X127727825Y-66939719D01*
X127727825Y-66939719D02*
X127918301Y-66939719D01*
X127918301Y-66939719D02*
X128013539Y-66892100D01*
X128013539Y-66892100D02*
X128061158Y-66844480D01*
X128061158Y-66844480D02*
X128108777Y-66749242D01*
X128108777Y-66749242D02*
X128108777Y-66463528D01*
X128108777Y-66463528D02*
X128061158Y-66368290D01*
X128061158Y-66368290D02*
X128013539Y-66320671D01*
X128013539Y-66320671D02*
X127918301Y-66273052D01*
X127918301Y-66273052D02*
X127727825Y-66273052D01*
X127727825Y-66273052D02*
X127632587Y-66320671D01*
X127156396Y-66939719D02*
X127156396Y-66273052D01*
X127156396Y-65939719D02*
X127204015Y-65987338D01*
X127204015Y-65987338D02*
X127156396Y-66034957D01*
X127156396Y-66034957D02*
X127108777Y-65987338D01*
X127108777Y-65987338D02*
X127156396Y-65939719D01*
X127156396Y-65939719D02*
X127156396Y-66034957D01*
X126251635Y-66892100D02*
X126346873Y-66939719D01*
X126346873Y-66939719D02*
X126537349Y-66939719D01*
X126537349Y-66939719D02*
X126632587Y-66892100D01*
X126632587Y-66892100D02*
X126680206Y-66844480D01*
X126680206Y-66844480D02*
X126727825Y-66749242D01*
X126727825Y-66749242D02*
X126727825Y-66463528D01*
X126727825Y-66463528D02*
X126680206Y-66368290D01*
X126680206Y-66368290D02*
X126632587Y-66320671D01*
X126632587Y-66320671D02*
X126537349Y-66273052D01*
X126537349Y-66273052D02*
X126346873Y-66273052D01*
X126346873Y-66273052D02*
X126251635Y-66320671D01*
X125394492Y-66939719D02*
X125394492Y-66415909D01*
X125394492Y-66415909D02*
X125442111Y-66320671D01*
X125442111Y-66320671D02*
X125537349Y-66273052D01*
X125537349Y-66273052D02*
X125727825Y-66273052D01*
X125727825Y-66273052D02*
X125823063Y-66320671D01*
X125394492Y-66892100D02*
X125489730Y-66939719D01*
X125489730Y-66939719D02*
X125727825Y-66939719D01*
X125727825Y-66939719D02*
X125823063Y-66892100D01*
X125823063Y-66892100D02*
X125870682Y-66796861D01*
X125870682Y-66796861D02*
X125870682Y-66701623D01*
X125870682Y-66701623D02*
X125823063Y-66606385D01*
X125823063Y-66606385D02*
X125727825Y-66558766D01*
X125727825Y-66558766D02*
X125489730Y-66558766D01*
X125489730Y-66558766D02*
X125394492Y-66511147D01*
X125061158Y-66273052D02*
X124680206Y-66273052D01*
X124918301Y-65939719D02*
X124918301Y-66796861D01*
X124918301Y-66796861D02*
X124870682Y-66892100D01*
X124870682Y-66892100D02*
X124775444Y-66939719D01*
X124775444Y-66939719D02*
X124680206Y-66939719D01*
X124204015Y-66939719D02*
X124299253Y-66892100D01*
X124299253Y-66892100D02*
X124346872Y-66844480D01*
X124346872Y-66844480D02*
X124394491Y-66749242D01*
X124394491Y-66749242D02*
X124394491Y-66463528D01*
X124394491Y-66463528D02*
X124346872Y-66368290D01*
X124346872Y-66368290D02*
X124299253Y-66320671D01*
X124299253Y-66320671D02*
X124204015Y-66273052D01*
X124204015Y-66273052D02*
X124061158Y-66273052D01*
X124061158Y-66273052D02*
X123965920Y-66320671D01*
X123965920Y-66320671D02*
X123918301Y-66368290D01*
X123918301Y-66368290D02*
X123870682Y-66463528D01*
X123870682Y-66463528D02*
X123870682Y-66749242D01*
X123870682Y-66749242D02*
X123918301Y-66844480D01*
X123918301Y-66844480D02*
X123965920Y-66892100D01*
X123965920Y-66892100D02*
X124061158Y-66939719D01*
X124061158Y-66939719D02*
X124204015Y-66939719D01*
X123442110Y-66939719D02*
X123442110Y-66273052D01*
X123442110Y-66463528D02*
X123394491Y-66368290D01*
X123394491Y-66368290D02*
X123346872Y-66320671D01*
X123346872Y-66320671D02*
X123251634Y-66273052D01*
X123251634Y-66273052D02*
X123156396Y-66273052D01*
X104000000Y-65000000D02*
X137000000Y-65000000D01*
X137000000Y-68000000D01*
X104000000Y-68000000D01*
X104000000Y-65000000D01*
D11*
%TO.C,G\u002A\u002A\u002A*%
G36*
X106266218Y-60634797D02*
G01*
X106278991Y-60673156D01*
X106285721Y-60713295D01*
X106285490Y-60723363D01*
X106280876Y-60735126D01*
X106266378Y-60742717D01*
X106236666Y-60747319D01*
X106186414Y-60750119D01*
X106110291Y-60752300D01*
X105934157Y-60756696D01*
X106133668Y-61388575D01*
X106157240Y-61463370D01*
X106198074Y-61593605D01*
X106235300Y-61713186D01*
X106267943Y-61818932D01*
X106295029Y-61907662D01*
X106315584Y-61976197D01*
X106328634Y-62021356D01*
X106333204Y-62039957D01*
X106332147Y-62044252D01*
X106309038Y-62055654D01*
X106255774Y-62059460D01*
X106178318Y-62059460D01*
X106125263Y-61891739D01*
X106119281Y-61872809D01*
X106098017Y-61805374D01*
X106069716Y-61715483D01*
X106036039Y-61608417D01*
X105998646Y-61489452D01*
X105959197Y-61363868D01*
X105919352Y-61236943D01*
X105766495Y-60749869D01*
X105594776Y-60745482D01*
X105423058Y-60741094D01*
X105400659Y-60673810D01*
X105394301Y-60653562D01*
X105385284Y-60617376D01*
X105384617Y-60600170D01*
X105384843Y-60600037D01*
X105403729Y-60598324D01*
X105449440Y-60596688D01*
X105517908Y-60595200D01*
X105605068Y-60593934D01*
X105706853Y-60592963D01*
X105819197Y-60592360D01*
X106247420Y-60590908D01*
X106266218Y-60634797D01*
G37*
G36*
X115534282Y-60628680D02*
G01*
X115547095Y-60660076D01*
X115557685Y-60703780D01*
X115558661Y-60716979D01*
X115555119Y-60728829D01*
X115541351Y-60736331D01*
X115512116Y-60740760D01*
X115462170Y-60743393D01*
X115386271Y-60745505D01*
X115323128Y-60747513D01*
X115264846Y-60750306D01*
X115225311Y-60753317D01*
X115210749Y-60756171D01*
X115212543Y-60762678D01*
X115222484Y-60795394D01*
X115240287Y-60852871D01*
X115264989Y-60932037D01*
X115295631Y-61029822D01*
X115331249Y-61143154D01*
X115370884Y-61268963D01*
X115413575Y-61404177D01*
X115440486Y-61489388D01*
X115481389Y-61619136D01*
X115518636Y-61737583D01*
X115551267Y-61841654D01*
X115578321Y-61928275D01*
X115598835Y-61994372D01*
X115611849Y-62036870D01*
X115616400Y-62052695D01*
X115609923Y-62055321D01*
X115580105Y-62058300D01*
X115534252Y-62059460D01*
X115452105Y-62059460D01*
X115247842Y-61408078D01*
X115043580Y-60756696D01*
X114882335Y-60752216D01*
X114833986Y-60750202D01*
X114771468Y-60745386D01*
X114725063Y-60739091D01*
X114702318Y-60732158D01*
X114696322Y-60724853D01*
X114681539Y-60691256D01*
X114669633Y-60646333D01*
X114664705Y-60604048D01*
X114664771Y-60603831D01*
X114681599Y-60600621D01*
X114725368Y-60597705D01*
X114792077Y-60595200D01*
X114877725Y-60593228D01*
X114978311Y-60591906D01*
X115089834Y-60591356D01*
X115514987Y-60590894D01*
X115534282Y-60628680D01*
G37*
G36*
X110669416Y-57553281D02*
G01*
X110832837Y-57553645D01*
X111005346Y-57554249D01*
X111987597Y-57558293D01*
X112054277Y-57776720D01*
X112064222Y-57809781D01*
X112085751Y-57885196D01*
X112102190Y-57948365D01*
X112112075Y-57993459D01*
X112113947Y-58014650D01*
X112104301Y-58021127D01*
X112077922Y-58026229D01*
X112031967Y-58029927D01*
X111963532Y-58032378D01*
X111869712Y-58033735D01*
X111747602Y-58034153D01*
X111687635Y-58034285D01*
X111591469Y-58035096D01*
X111509097Y-58036546D01*
X111444871Y-58038521D01*
X111403144Y-58040907D01*
X111388267Y-58043589D01*
X111390042Y-58050363D01*
X111399967Y-58083744D01*
X111417874Y-58142478D01*
X111442919Y-58223842D01*
X111474259Y-58325113D01*
X111511051Y-58443566D01*
X111552450Y-58576479D01*
X111597614Y-58721128D01*
X111645700Y-58874790D01*
X111675802Y-58970960D01*
X111722188Y-59119484D01*
X111765129Y-59257371D01*
X111803779Y-59381887D01*
X111837295Y-59490300D01*
X111864833Y-59579876D01*
X111885548Y-59647883D01*
X111898595Y-59691587D01*
X111903132Y-59708256D01*
X111897854Y-59710584D01*
X111867170Y-59713722D01*
X111813704Y-59715721D01*
X111742740Y-59716421D01*
X111659561Y-59715661D01*
X111415989Y-59711364D01*
X110894515Y-58041954D01*
X110515026Y-58034153D01*
X110135538Y-58026352D01*
X110061434Y-57795111D01*
X110060457Y-57792060D01*
X110029388Y-57691105D01*
X110009898Y-57618597D01*
X110001877Y-57574064D01*
X110005213Y-57557038D01*
X110006480Y-57556796D01*
X110030771Y-57555697D01*
X110083028Y-57554784D01*
X110160554Y-57554065D01*
X110260653Y-57553548D01*
X110380627Y-57553240D01*
X110517780Y-57553149D01*
X110669416Y-57553281D01*
G37*
G36*
X110296884Y-61304260D02*
G01*
X110339109Y-61438745D01*
X110380989Y-61572444D01*
X110421478Y-61702038D01*
X110459532Y-61824211D01*
X110494105Y-61935643D01*
X110524151Y-62033018D01*
X110526428Y-62043365D01*
X110520878Y-62054379D01*
X110497499Y-62058039D01*
X110449686Y-62056421D01*
X110366563Y-62051659D01*
X110316944Y-61895639D01*
X110298862Y-61838806D01*
X110268783Y-61744333D01*
X110236885Y-61644205D01*
X110207618Y-61552396D01*
X110147911Y-61365172D01*
X109757862Y-61357371D01*
X109679250Y-61355781D01*
X109576208Y-61353444D01*
X109497161Y-61350943D01*
X109437679Y-61347802D01*
X109393331Y-61343542D01*
X109359686Y-61337688D01*
X109332312Y-61329763D01*
X109306779Y-61319289D01*
X109278656Y-61305789D01*
X109240337Y-61284986D01*
X109148153Y-61213154D01*
X109080966Y-61123957D01*
X109040283Y-61019819D01*
X109029115Y-60916973D01*
X109187911Y-60916973D01*
X109194587Y-60982708D01*
X109221755Y-61047675D01*
X109269052Y-61106454D01*
X109336117Y-61153629D01*
X109357560Y-61164342D01*
X109382748Y-61174912D01*
X109410414Y-61182728D01*
X109445345Y-61188307D01*
X109492329Y-61192162D01*
X109556153Y-61194810D01*
X109641604Y-61196765D01*
X109753470Y-61198542D01*
X109796593Y-61199072D01*
X109891466Y-61199460D01*
X109973025Y-61198718D01*
X110036800Y-61196950D01*
X110078321Y-61194256D01*
X110093117Y-61190741D01*
X110092535Y-61187329D01*
X110085082Y-61159635D01*
X110070393Y-61109924D01*
X110050184Y-61043913D01*
X110026166Y-60967322D01*
X109959402Y-60756696D01*
X109663607Y-60751986D01*
X109608381Y-60751333D01*
X109501872Y-60751554D01*
X109413845Y-60753845D01*
X109348526Y-60758063D01*
X109310143Y-60764063D01*
X109294443Y-60769333D01*
X109237478Y-60804868D01*
X109202088Y-60855887D01*
X109187911Y-60916973D01*
X109029115Y-60916973D01*
X109027615Y-60903159D01*
X109028240Y-60888005D01*
X109049068Y-60799084D01*
X109097074Y-60721069D01*
X109169453Y-60657428D01*
X109263397Y-60611631D01*
X109283755Y-60608133D01*
X109331132Y-60604185D01*
X109398801Y-60600554D01*
X109481615Y-60597334D01*
X109574428Y-60594614D01*
X109672092Y-60592486D01*
X109769460Y-60591042D01*
X109861384Y-60590373D01*
X109942717Y-60590570D01*
X110008313Y-60591726D01*
X110053023Y-60593930D01*
X110071702Y-60597276D01*
X110072133Y-60598181D01*
X110079478Y-60619522D01*
X110094842Y-60666619D01*
X110117180Y-60736152D01*
X110145446Y-60824806D01*
X110178595Y-60929261D01*
X110215582Y-61046200D01*
X110255360Y-61172306D01*
X110261161Y-61190741D01*
X110296884Y-61304260D01*
G37*
G36*
X114815964Y-61726397D02*
G01*
X114818442Y-61783289D01*
X114805171Y-61879663D01*
X114767274Y-61957407D01*
X114703979Y-62017811D01*
X114614510Y-62062165D01*
X114578946Y-62073438D01*
X114527294Y-62083451D01*
X114465764Y-62087039D01*
X114383845Y-62085252D01*
X114369619Y-62084572D01*
X114259702Y-62073035D01*
X114171693Y-62049658D01*
X114098412Y-62011817D01*
X114032683Y-61956890D01*
X114020384Y-61944050D01*
X113989910Y-61906360D01*
X113960809Y-61860024D01*
X113931539Y-61801452D01*
X113900558Y-61727052D01*
X113866324Y-61633233D01*
X113827294Y-61516404D01*
X113781927Y-61372973D01*
X113759550Y-61299895D01*
X113718449Y-61156944D01*
X113689140Y-61038193D01*
X113671498Y-60940459D01*
X113669380Y-60912715D01*
X113826624Y-60912715D01*
X113829236Y-60931714D01*
X113840850Y-60985600D01*
X113859947Y-61060398D01*
X113884849Y-61150588D01*
X113913879Y-61250650D01*
X113945360Y-61355067D01*
X113977616Y-61458318D01*
X114008968Y-61554885D01*
X114037740Y-61639249D01*
X114062254Y-61705890D01*
X114080835Y-61749289D01*
X114134465Y-61830071D01*
X114203517Y-61885777D01*
X114290545Y-61917652D01*
X114303304Y-61920290D01*
X114414147Y-61933759D01*
X114506385Y-61927185D01*
X114578310Y-61901499D01*
X114628214Y-61857630D01*
X114654389Y-61796508D01*
X114655129Y-61719065D01*
X114648004Y-61684144D01*
X114631502Y-61620615D01*
X114608004Y-61538746D01*
X114579255Y-61443904D01*
X114547004Y-61341455D01*
X114512999Y-61236765D01*
X114478987Y-61135202D01*
X114446715Y-61042131D01*
X114417932Y-60962918D01*
X114394384Y-60902930D01*
X114377820Y-60867534D01*
X114341112Y-60816990D01*
X114280222Y-60768495D01*
X114200459Y-60737880D01*
X114097070Y-60722692D01*
X114064644Y-60720925D01*
X113969502Y-60724646D01*
X113899777Y-60744528D01*
X113853821Y-60781728D01*
X113829987Y-60837404D01*
X113826624Y-60912715D01*
X113669380Y-60912715D01*
X113665399Y-60860559D01*
X113670720Y-60795309D01*
X113687336Y-60741525D01*
X113715123Y-60696026D01*
X113753957Y-60655627D01*
X113780378Y-60635472D01*
X113862817Y-60595657D01*
X113962776Y-60571706D01*
X114073177Y-60564315D01*
X114186938Y-60574185D01*
X114296981Y-60602015D01*
X114344974Y-60624291D01*
X114419589Y-60677615D01*
X114486854Y-60746307D01*
X114537091Y-60821519D01*
X114555276Y-60863305D01*
X114580212Y-60929955D01*
X114609793Y-61015231D01*
X114642373Y-61113788D01*
X114676304Y-61220279D01*
X114709937Y-61329356D01*
X114741624Y-61435672D01*
X114769719Y-61533882D01*
X114792572Y-61618637D01*
X114808537Y-61684591D01*
X114814661Y-61719065D01*
X114815964Y-61726397D01*
G37*
G36*
X109063132Y-61745158D02*
G01*
X109063488Y-61775346D01*
X109053974Y-61855390D01*
X109022136Y-61938289D01*
X108971659Y-62003338D01*
X108954463Y-62015842D01*
X108909648Y-62039794D01*
X108856885Y-62061336D01*
X108770195Y-62082415D01*
X108653885Y-62090047D01*
X108535413Y-62078695D01*
X108424474Y-62049429D01*
X108330762Y-62003319D01*
X108307386Y-61986985D01*
X108272195Y-61957360D01*
X108240649Y-61921989D01*
X108211047Y-61877395D01*
X108181684Y-61820099D01*
X108150859Y-61746626D01*
X108116869Y-61653497D01*
X108078011Y-61537236D01*
X108032582Y-61394365D01*
X107996036Y-61275138D01*
X107956996Y-61137659D01*
X107929433Y-61023619D01*
X107913197Y-60929880D01*
X107913026Y-60927290D01*
X108070100Y-60927290D01*
X108073445Y-60947347D01*
X108086255Y-61002193D01*
X108106476Y-61077740D01*
X108132377Y-61168404D01*
X108162227Y-61268601D01*
X108194295Y-61372745D01*
X108226850Y-61475253D01*
X108258161Y-61570540D01*
X108286499Y-61653021D01*
X108310131Y-61717113D01*
X108327328Y-61757231D01*
X108373351Y-61826296D01*
X108444009Y-61884337D01*
X108533420Y-61917652D01*
X108545042Y-61920062D01*
X108655628Y-61933581D01*
X108748072Y-61927134D01*
X108820532Y-61901707D01*
X108871169Y-61858286D01*
X108898144Y-61797856D01*
X108899617Y-61721404D01*
X108891909Y-61683956D01*
X108875118Y-61620085D01*
X108851363Y-61537984D01*
X108822393Y-61443005D01*
X108789956Y-61340500D01*
X108755803Y-61235823D01*
X108721682Y-61134326D01*
X108689341Y-61041363D01*
X108660531Y-60962285D01*
X108637000Y-60902445D01*
X108620498Y-60867197D01*
X108593176Y-60827825D01*
X108532299Y-60774390D01*
X108452059Y-60740056D01*
X108348399Y-60722670D01*
X108302714Y-60720054D01*
X108208076Y-60725288D01*
X108138588Y-60747825D01*
X108093158Y-60788469D01*
X108070693Y-60848023D01*
X108070100Y-60927290D01*
X107913026Y-60927290D01*
X107908134Y-60853305D01*
X107914089Y-60790755D01*
X107930912Y-60739093D01*
X107958447Y-60695181D01*
X107996543Y-60655881D01*
X108027462Y-60632611D01*
X108112398Y-60592590D01*
X108213054Y-60569328D01*
X108322033Y-60562939D01*
X108431934Y-60573537D01*
X108535359Y-60601238D01*
X108624909Y-60646155D01*
X108662569Y-60673758D01*
X108699451Y-60708337D01*
X108732808Y-60750541D01*
X108764573Y-60804121D01*
X108796685Y-60872829D01*
X108831078Y-60960419D01*
X108869690Y-61070641D01*
X108914456Y-61207248D01*
X108929720Y-61254815D01*
X108968373Y-61375686D01*
X108998758Y-61471952D01*
X109021869Y-61547404D01*
X109038701Y-61605835D01*
X109050249Y-61651034D01*
X109057507Y-61686794D01*
X109061470Y-61716905D01*
X109061735Y-61721404D01*
X109063132Y-61745158D01*
G37*
G36*
X117755825Y-58477113D02*
G01*
X117810110Y-58650430D01*
X117845063Y-58762119D01*
X117897539Y-58929697D01*
X117946885Y-59087160D01*
X117992328Y-59232050D01*
X118033096Y-59361907D01*
X118068416Y-59474273D01*
X118097517Y-59566690D01*
X118119625Y-59636700D01*
X118133969Y-59681843D01*
X118139775Y-59699663D01*
X118139952Y-59700178D01*
X118135040Y-59707785D01*
X118112748Y-59713198D01*
X118069624Y-59716706D01*
X118002217Y-59718598D01*
X117907075Y-59719165D01*
X117666893Y-59719165D01*
X117617800Y-59567046D01*
X117613533Y-59553803D01*
X117588700Y-59476172D01*
X117558707Y-59381746D01*
X117526955Y-59281255D01*
X117496845Y-59185429D01*
X117424984Y-58955931D01*
X116399777Y-58951400D01*
X115374570Y-58946868D01*
X115249904Y-58902814D01*
X115174655Y-58873595D01*
X115028222Y-58797495D01*
X114908490Y-58705263D01*
X114815424Y-58596855D01*
X114748990Y-58472225D01*
X114709155Y-58331330D01*
X114703207Y-58260866D01*
X115166683Y-58260866D01*
X115187244Y-58335973D01*
X115189375Y-58340332D01*
X115233456Y-58398087D01*
X115301058Y-58440509D01*
X115394840Y-58469305D01*
X115406306Y-58470894D01*
X115449542Y-58473836D01*
X115517381Y-58476510D01*
X115606540Y-58478907D01*
X115713737Y-58481017D01*
X115835689Y-58482829D01*
X115969113Y-58484335D01*
X116110728Y-58485525D01*
X116257250Y-58486388D01*
X116405397Y-58486914D01*
X116551887Y-58487095D01*
X116693436Y-58486920D01*
X116826762Y-58486379D01*
X116948582Y-58485463D01*
X117055615Y-58484162D01*
X117144577Y-58482466D01*
X117212186Y-58480364D01*
X117255159Y-58477849D01*
X117270214Y-58474908D01*
X117269550Y-58471108D01*
X117262041Y-58442872D01*
X117247494Y-58392655D01*
X117227564Y-58326100D01*
X117203905Y-58248849D01*
X117137592Y-58034491D01*
X116263882Y-58034409D01*
X116159398Y-58034469D01*
X115957398Y-58035050D01*
X115781998Y-58036237D01*
X115633965Y-58038018D01*
X115514066Y-58040379D01*
X115423066Y-58043306D01*
X115361733Y-58046786D01*
X115330833Y-58050805D01*
X115267139Y-58077542D01*
X115209124Y-58126699D01*
X115174808Y-58189457D01*
X115166683Y-58260866D01*
X114703207Y-58260866D01*
X114695884Y-58174124D01*
X114698966Y-58105505D01*
X114707543Y-58032883D01*
X114719687Y-57975265D01*
X114739832Y-57921116D01*
X114801057Y-57820473D01*
X114887791Y-57731604D01*
X114996821Y-57657475D01*
X115124938Y-57601049D01*
X115249754Y-57558480D01*
X117457478Y-57549124D01*
X117472702Y-57584912D01*
X117476105Y-57594431D01*
X117488624Y-57632349D01*
X117509146Y-57695979D01*
X117536876Y-57782810D01*
X117571019Y-57890332D01*
X117610781Y-58016033D01*
X117655366Y-58157404D01*
X117703979Y-58311935D01*
X117755133Y-58474908D01*
X117755825Y-58477113D01*
G37*
G36*
X116921094Y-61784443D02*
G01*
X116905618Y-61880809D01*
X116864876Y-61961472D01*
X116800062Y-62024187D01*
X116712370Y-62066707D01*
X116668593Y-62077388D01*
X116590098Y-62085364D01*
X116487441Y-62085195D01*
X116481878Y-62084996D01*
X116404536Y-62080612D01*
X116347217Y-62072696D01*
X116299403Y-62059148D01*
X116250578Y-62037865D01*
X116171989Y-61989496D01*
X116090892Y-61908254D01*
X116028501Y-61802739D01*
X116021217Y-61785213D01*
X116002040Y-61733497D01*
X115976550Y-61660282D01*
X115946559Y-61570922D01*
X115913880Y-61470768D01*
X115880325Y-61365172D01*
X115847531Y-61259584D01*
X115818380Y-61162474D01*
X115797009Y-61085887D01*
X115782265Y-61024995D01*
X115772992Y-60974968D01*
X115768035Y-60930980D01*
X115766239Y-60888200D01*
X115766321Y-60876728D01*
X115927658Y-60876728D01*
X115932307Y-60931320D01*
X115945712Y-61002048D01*
X115968322Y-61092219D01*
X116000585Y-61205141D01*
X116042950Y-61344121D01*
X116059784Y-61398053D01*
X116100418Y-61524951D01*
X116135061Y-61626347D01*
X116165358Y-61705599D01*
X116192954Y-61766062D01*
X116219497Y-61811092D01*
X116246631Y-61844046D01*
X116276003Y-61868278D01*
X116309258Y-61887146D01*
X116333392Y-61897404D01*
X116411997Y-61918547D01*
X116499342Y-61928814D01*
X116583162Y-61927278D01*
X116651191Y-61913012D01*
X116686894Y-61899502D01*
X116709806Y-61887884D01*
X116723240Y-61872733D01*
X116737628Y-61845959D01*
X116747502Y-61824734D01*
X116754962Y-61799916D01*
X116757960Y-61770939D01*
X116755823Y-61734622D01*
X116747876Y-61687783D01*
X116733445Y-61627243D01*
X116711855Y-61549820D01*
X116682433Y-61452333D01*
X116644503Y-61331601D01*
X116597392Y-61184443D01*
X116556212Y-61060825D01*
X116517779Y-60958443D01*
X116481320Y-60879788D01*
X116444171Y-60821470D01*
X116403670Y-60780101D01*
X116357154Y-60752292D01*
X116301962Y-60734656D01*
X116235429Y-60723803D01*
X116182262Y-60719593D01*
X116090843Y-60723270D01*
X116016685Y-60741364D01*
X115965485Y-60772838D01*
X115961762Y-60776685D01*
X115942834Y-60802718D01*
X115931316Y-60834963D01*
X115927658Y-60876728D01*
X115766321Y-60876728D01*
X115766687Y-60825692D01*
X115771885Y-60780293D01*
X115784335Y-60744341D01*
X115806495Y-60706767D01*
X115838325Y-60665550D01*
X115892610Y-60620536D01*
X115961328Y-60590867D01*
X116049580Y-60574578D01*
X116162469Y-60569705D01*
X116192846Y-60569863D01*
X116265117Y-60572038D01*
X116318394Y-60577818D01*
X116361760Y-60588549D01*
X116404299Y-60605580D01*
X116490332Y-60656803D01*
X116575056Y-60735097D01*
X116637905Y-60826905D01*
X116645097Y-60842375D01*
X116665978Y-60894901D01*
X116692875Y-60969315D01*
X116724024Y-61060091D01*
X116757663Y-61161702D01*
X116792028Y-61268621D01*
X116825357Y-61375321D01*
X116855886Y-61476276D01*
X116881852Y-61565959D01*
X116901493Y-61638843D01*
X116913044Y-61689402D01*
X116919950Y-61770939D01*
X116921094Y-61784443D01*
G37*
G36*
X112854027Y-58178471D02*
G01*
X112869587Y-58229127D01*
X112912777Y-58367699D01*
X112954949Y-58500207D01*
X112994782Y-58622678D01*
X113030959Y-58731140D01*
X113062162Y-58821620D01*
X113087072Y-58890146D01*
X113104370Y-58932745D01*
X113134013Y-58992463D01*
X113207361Y-59106168D01*
X113293199Y-59194033D01*
X113395178Y-59258648D01*
X113516949Y-59302604D01*
X113662163Y-59328492D01*
X113734880Y-59334645D01*
X113873309Y-59332949D01*
X113989932Y-59311583D01*
X114083960Y-59270957D01*
X114154603Y-59211481D01*
X114201073Y-59133565D01*
X114222579Y-59037619D01*
X114223251Y-59028281D01*
X114223709Y-59003886D01*
X114221762Y-58976234D01*
X114216653Y-58942374D01*
X114207620Y-58899358D01*
X114193906Y-58844236D01*
X114174751Y-58774057D01*
X114149395Y-58685873D01*
X114117080Y-58576732D01*
X114077045Y-58443686D01*
X114028532Y-58283784D01*
X113998791Y-58185998D01*
X113958150Y-58052441D01*
X113920705Y-57929456D01*
X113887433Y-57820256D01*
X113859315Y-57728057D01*
X113837331Y-57656071D01*
X113822461Y-57607513D01*
X113815684Y-57585596D01*
X113804469Y-57550492D01*
X114047686Y-57550492D01*
X114112017Y-57550550D01*
X114185989Y-57551159D01*
X114236842Y-57552981D01*
X114269432Y-57556677D01*
X114288618Y-57562905D01*
X114299254Y-57572325D01*
X114306199Y-57585596D01*
X114309693Y-57594119D01*
X114325862Y-57639248D01*
X114348713Y-57708441D01*
X114377018Y-57797554D01*
X114409551Y-57902445D01*
X114445085Y-58018970D01*
X114482394Y-58142986D01*
X114520252Y-58270351D01*
X114557431Y-58396921D01*
X114592705Y-58518552D01*
X114624848Y-58631102D01*
X114652633Y-58730428D01*
X114674834Y-58812386D01*
X114690223Y-58872833D01*
X114697576Y-58907626D01*
X114706644Y-59012649D01*
X114697722Y-59150680D01*
X114663059Y-59292495D01*
X114658689Y-59305574D01*
X114597749Y-59437317D01*
X114512425Y-59549716D01*
X114403004Y-59642523D01*
X114269771Y-59715493D01*
X114113012Y-59768376D01*
X114043179Y-59781266D01*
X113939797Y-59790713D01*
X113822168Y-59794096D01*
X113699113Y-59791625D01*
X113579449Y-59783507D01*
X113471996Y-59769951D01*
X113385574Y-59751166D01*
X113367946Y-59745855D01*
X113207464Y-59682803D01*
X113057720Y-59598001D01*
X112925058Y-59495586D01*
X112815824Y-59379694D01*
X112796558Y-59354672D01*
X112756185Y-59297501D01*
X112719367Y-59236958D01*
X112684490Y-59169205D01*
X112649939Y-59090405D01*
X112614101Y-58996724D01*
X112575361Y-58884324D01*
X112532105Y-58749369D01*
X112482719Y-58588023D01*
X112480367Y-58580217D01*
X112440208Y-58447072D01*
X112398419Y-58308684D01*
X112357124Y-58172077D01*
X112318448Y-58044276D01*
X112284514Y-57932306D01*
X112257448Y-57843191D01*
X112231448Y-57756004D01*
X112209422Y-57678755D01*
X112192849Y-57616879D01*
X112183014Y-57575178D01*
X112181205Y-57558455D01*
X112186546Y-57557015D01*
X112217769Y-57554435D01*
X112271749Y-57552366D01*
X112342876Y-57550991D01*
X112425540Y-57550492D01*
X112661912Y-57550492D01*
X112854027Y-58178471D01*
G37*
G36*
X118216319Y-60589793D02*
G01*
X118417569Y-60594512D01*
X118641691Y-61307484D01*
X118642468Y-61309955D01*
X118687501Y-61453156D01*
X118729779Y-61587485D01*
X118768358Y-61709957D01*
X118802297Y-61817585D01*
X118830654Y-61907384D01*
X118852487Y-61976370D01*
X118866853Y-62021556D01*
X118872812Y-62039957D01*
X118870032Y-62050103D01*
X118844999Y-62057270D01*
X118792700Y-62059460D01*
X118756204Y-62058825D01*
X118719716Y-62056334D01*
X118705589Y-62052602D01*
X118702567Y-62041462D01*
X118691178Y-62003439D01*
X118672299Y-61941708D01*
X118646968Y-61859605D01*
X118616224Y-61760465D01*
X118581105Y-61647623D01*
X118542649Y-61524415D01*
X118501895Y-61394175D01*
X118459881Y-61260241D01*
X118417646Y-61125946D01*
X118376227Y-60994626D01*
X118298598Y-60748895D01*
X118156320Y-60748895D01*
X118168493Y-61345670D01*
X118168812Y-61361316D01*
X118171566Y-61496320D01*
X118174150Y-61622930D01*
X118176485Y-61737346D01*
X118178495Y-61835766D01*
X118180102Y-61914391D01*
X118181227Y-61969420D01*
X118181794Y-61997052D01*
X118182923Y-62051659D01*
X117982782Y-62051659D01*
X117594130Y-61419779D01*
X117516914Y-61294211D01*
X117443173Y-61174238D01*
X117375875Y-61064691D01*
X117316671Y-60968259D01*
X117267213Y-60887637D01*
X117229153Y-60825514D01*
X117204143Y-60784583D01*
X117193835Y-60767535D01*
X117188771Y-60761953D01*
X117156457Y-60752312D01*
X117096239Y-60751933D01*
X117010286Y-60756696D01*
X117217873Y-61388575D01*
X117242978Y-61465127D01*
X117285363Y-61595010D01*
X117324010Y-61714242D01*
X117357910Y-61819662D01*
X117386054Y-61908106D01*
X117407430Y-61976411D01*
X117421030Y-62021416D01*
X117425844Y-62039957D01*
X117424822Y-62044366D01*
X117401974Y-62055693D01*
X117348997Y-62059460D01*
X117271766Y-62059460D01*
X117082834Y-61478287D01*
X117079586Y-61468298D01*
X117035683Y-61333266D01*
X116993065Y-61202222D01*
X116953127Y-61079446D01*
X116917260Y-60969220D01*
X116886859Y-60875826D01*
X116863316Y-60803544D01*
X116848025Y-60756657D01*
X116836759Y-60721807D01*
X116818972Y-60665053D01*
X116806715Y-60623575D01*
X116802149Y-60604538D01*
X116805416Y-60602580D01*
X116832740Y-60598747D01*
X116883307Y-60595669D01*
X116951681Y-60593619D01*
X117032425Y-60592875D01*
X117262700Y-60592875D01*
X117643727Y-61208927D01*
X117714970Y-61323936D01*
X117787725Y-61440995D01*
X117853877Y-61547025D01*
X117911799Y-61639436D01*
X117959862Y-61715641D01*
X117996438Y-61773048D01*
X118019900Y-61809069D01*
X118028620Y-61821114D01*
X118028760Y-61820498D01*
X118029049Y-61799536D01*
X118028502Y-61751382D01*
X118027194Y-61679445D01*
X118025196Y-61587134D01*
X118022581Y-61477857D01*
X118019423Y-61355025D01*
X118015794Y-61222045D01*
X118015223Y-61201486D01*
X118011785Y-61068855D01*
X118009022Y-60946177D01*
X118006985Y-60836991D01*
X118005722Y-60744837D01*
X118005285Y-60673254D01*
X118005723Y-60625781D01*
X118007085Y-60605957D01*
X118011989Y-60600016D01*
X118031501Y-60593252D01*
X118069177Y-60589516D01*
X118129341Y-60588474D01*
X118216319Y-60589793D01*
G37*
G36*
X107723397Y-61234177D02*
G01*
X107763510Y-61361834D01*
X107803097Y-61488390D01*
X107841039Y-61610278D01*
X107876217Y-61723931D01*
X107907510Y-61825784D01*
X107933798Y-61912268D01*
X107953962Y-61979818D01*
X107966882Y-62024868D01*
X107971437Y-62043849D01*
X107969163Y-62048685D01*
X107943523Y-62056245D01*
X107892033Y-62056375D01*
X107812629Y-62051659D01*
X107768332Y-61911241D01*
X107746256Y-61841109D01*
X107718244Y-61751885D01*
X107688107Y-61655718D01*
X107659450Y-61564097D01*
X107594866Y-61357371D01*
X107384915Y-61357371D01*
X107370639Y-61357374D01*
X107290237Y-61357692D01*
X107235044Y-61359127D01*
X107199834Y-61362500D01*
X107179381Y-61368635D01*
X107168459Y-61378352D01*
X107161843Y-61392476D01*
X107160863Y-61395429D01*
X107153016Y-61426725D01*
X107140813Y-61482404D01*
X107125338Y-61557244D01*
X107107678Y-61646023D01*
X107088916Y-61743520D01*
X107029109Y-62059460D01*
X106946403Y-62059460D01*
X106914002Y-62058949D01*
X106877785Y-62056644D01*
X106863697Y-62053111D01*
X106863929Y-62051383D01*
X106868321Y-62027147D01*
X106877611Y-61978206D01*
X106890907Y-61909182D01*
X106907322Y-61824696D01*
X106925967Y-61729370D01*
X106930656Y-61705396D01*
X106948972Y-61610219D01*
X106964813Y-61525531D01*
X106977267Y-61456359D01*
X106985424Y-61407732D01*
X106988375Y-61384675D01*
X106987805Y-61377713D01*
X106974013Y-61361864D01*
X106936738Y-61357371D01*
X106883579Y-61352049D01*
X106805120Y-61333019D01*
X106725507Y-61304240D01*
X106658397Y-61269999D01*
X106643464Y-61260039D01*
X106567307Y-61188294D01*
X106512462Y-61097676D01*
X106481474Y-60993635D01*
X106477834Y-60904670D01*
X106633840Y-60904670D01*
X106643530Y-60980994D01*
X106672942Y-61054128D01*
X106720816Y-61111312D01*
X106793489Y-61159965D01*
X106803353Y-61165103D01*
X106826149Y-61174975D01*
X106852696Y-61182427D01*
X106887571Y-61187892D01*
X106935349Y-61191801D01*
X107000604Y-61194586D01*
X107087912Y-61196679D01*
X107201849Y-61198512D01*
X107547801Y-61203474D01*
X107479054Y-60987886D01*
X107468917Y-60955979D01*
X107445784Y-60882192D01*
X107427126Y-60821298D01*
X107414643Y-60778899D01*
X107410036Y-60760596D01*
X107409610Y-60759990D01*
X107390061Y-60756494D01*
X107344784Y-60753497D01*
X107278482Y-60751173D01*
X107195861Y-60749695D01*
X107101627Y-60749237D01*
X107050416Y-60749354D01*
X106953218Y-60750179D01*
X106880121Y-60752096D01*
X106826182Y-60755495D01*
X106786459Y-60760764D01*
X106756010Y-60768291D01*
X106729892Y-60778464D01*
X106694597Y-60798090D01*
X106650619Y-60844274D01*
X106633840Y-60904670D01*
X106477834Y-60904670D01*
X106476891Y-60881622D01*
X106479338Y-60860567D01*
X106507023Y-60774445D01*
X106562563Y-60701153D01*
X106646665Y-60639681D01*
X106657838Y-60633438D01*
X106679193Y-60622806D01*
X106702174Y-60614615D01*
X106731006Y-60608439D01*
X106769913Y-60603853D01*
X106823121Y-60600429D01*
X106894853Y-60597742D01*
X106989335Y-60595366D01*
X107110792Y-60592875D01*
X107131828Y-60592473D01*
X107263978Y-60590677D01*
X107369944Y-60590624D01*
X107448482Y-60592288D01*
X107498348Y-60595647D01*
X107518298Y-60600676D01*
X107521978Y-60609335D01*
X107534409Y-60644836D01*
X107554155Y-60704202D01*
X107580094Y-60783867D01*
X107611108Y-60880263D01*
X107646077Y-60989825D01*
X107683879Y-61108985D01*
X107713705Y-61203474D01*
X107723397Y-61234177D01*
G37*
G36*
X113478641Y-61303568D02*
G01*
X113520507Y-61437544D01*
X113562553Y-61572086D01*
X113601031Y-61695192D01*
X113634983Y-61803804D01*
X113663454Y-61894865D01*
X113685487Y-61965316D01*
X113700127Y-62012099D01*
X113706417Y-62032156D01*
X113708386Y-62040646D01*
X113703187Y-62052676D01*
X113679791Y-62058159D01*
X113631721Y-62059460D01*
X113548379Y-62059460D01*
X113448597Y-61735719D01*
X113437614Y-61700183D01*
X113408213Y-61606060D01*
X113381712Y-61522609D01*
X113359657Y-61454626D01*
X113343597Y-61406905D01*
X113335081Y-61384240D01*
X113329890Y-61376210D01*
X113317175Y-61367621D01*
X113293794Y-61362318D01*
X113254618Y-61359773D01*
X113194519Y-61359456D01*
X113108366Y-61360837D01*
X112895384Y-61365172D01*
X112829068Y-61708416D01*
X112819417Y-61758369D01*
X112801193Y-61852691D01*
X112785490Y-61933970D01*
X112773156Y-61997806D01*
X112765041Y-62039802D01*
X112761996Y-62055559D01*
X112756513Y-62056958D01*
X112727926Y-62058756D01*
X112683231Y-62059460D01*
X112676894Y-62059442D01*
X112632303Y-62057024D01*
X112610846Y-62048766D01*
X112605359Y-62032156D01*
X112605546Y-62029203D01*
X112609836Y-61999516D01*
X112619113Y-61945471D01*
X112632468Y-61872095D01*
X112648989Y-61784416D01*
X112667767Y-61687461D01*
X112673210Y-61659702D01*
X112691302Y-61567188D01*
X112706918Y-61486969D01*
X112719170Y-61423626D01*
X112727172Y-61381738D01*
X112730036Y-61365887D01*
X112720413Y-61363153D01*
X112687233Y-61358469D01*
X112638556Y-61353410D01*
X112535226Y-61333629D01*
X112426200Y-61287669D01*
X112334801Y-61220084D01*
X112316901Y-61202262D01*
X112267375Y-61141892D01*
X112235541Y-61077110D01*
X112214289Y-60994616D01*
X112209797Y-60966681D01*
X112209856Y-60948544D01*
X112374303Y-60948544D01*
X112387816Y-61015755D01*
X112415624Y-61073204D01*
X112429640Y-61089595D01*
X112472946Y-61126215D01*
X112523419Y-61157107D01*
X112537120Y-61163675D01*
X112562752Y-61174196D01*
X112590903Y-61182072D01*
X112626353Y-61187782D01*
X112673883Y-61191805D01*
X112738275Y-61194619D01*
X112824307Y-61196705D01*
X112936762Y-61198542D01*
X112979481Y-61199069D01*
X113074305Y-61199461D01*
X113155820Y-61198721D01*
X113219554Y-61196953D01*
X113261036Y-61194258D01*
X113275793Y-61190741D01*
X113275192Y-61187323D01*
X113267673Y-61159622D01*
X113252910Y-61109911D01*
X113232623Y-61043906D01*
X113208533Y-60967322D01*
X113141584Y-60756696D01*
X112834684Y-60752466D01*
X112787457Y-60751900D01*
X112675442Y-60751729D01*
X112588943Y-60754234D01*
X112523809Y-60760179D01*
X112475885Y-60770329D01*
X112441019Y-60785448D01*
X112415057Y-60806303D01*
X112393847Y-60833656D01*
X112376171Y-60883527D01*
X112374303Y-60948544D01*
X112209856Y-60948544D01*
X112210125Y-60865394D01*
X112238909Y-60776807D01*
X112296111Y-60701054D01*
X112310672Y-60687284D01*
X112344759Y-60659094D01*
X112380993Y-60637118D01*
X112423525Y-60620577D01*
X112476503Y-60608691D01*
X112544078Y-60600679D01*
X112630398Y-60595762D01*
X112739614Y-60593160D01*
X112875876Y-60592093D01*
X112946229Y-60591937D01*
X113043937Y-60592096D01*
X113127907Y-60592683D01*
X113193773Y-60593647D01*
X113237168Y-60594936D01*
X113253727Y-60596500D01*
X113259056Y-60611077D01*
X113272793Y-60652637D01*
X113293965Y-60718218D01*
X113321638Y-60804880D01*
X113354877Y-60909685D01*
X113392747Y-61029694D01*
X113434314Y-61161968D01*
X113443321Y-61190741D01*
X113478641Y-61303568D01*
G37*
G36*
X111069011Y-60585124D02*
G01*
X111208825Y-60585443D01*
X111323054Y-60586176D01*
X111415059Y-60587456D01*
X111488203Y-60589417D01*
X111545848Y-60592194D01*
X111591357Y-60595920D01*
X111628091Y-60600729D01*
X111659414Y-60606755D01*
X111688686Y-60614132D01*
X111709523Y-60620198D01*
X111815527Y-60664425D01*
X111897984Y-60725734D01*
X111960596Y-60806744D01*
X111961646Y-60808533D01*
X111984144Y-60851282D01*
X111997136Y-60891107D01*
X112003107Y-60939363D01*
X112004545Y-61007403D01*
X112003283Y-61053607D01*
X111989935Y-61139647D01*
X111959035Y-61206058D01*
X111906892Y-61259123D01*
X111829819Y-61305128D01*
X111739312Y-61349570D01*
X111341462Y-61357371D01*
X111276755Y-61358690D01*
X111165888Y-61361370D01*
X111080121Y-61364309D01*
X111015357Y-61367843D01*
X110967502Y-61372303D01*
X110932457Y-61378023D01*
X110906128Y-61385338D01*
X110884417Y-61394580D01*
X110875948Y-61398987D01*
X110821193Y-61443091D01*
X110789874Y-61504529D01*
X110780133Y-61586726D01*
X110786412Y-61653396D01*
X110818221Y-61741456D01*
X110876115Y-61812713D01*
X110959213Y-61865797D01*
X110966246Y-61867357D01*
X111002168Y-61870656D01*
X111064183Y-61874015D01*
X111148860Y-61877323D01*
X111252768Y-61880469D01*
X111372475Y-61883344D01*
X111504551Y-61885837D01*
X111645565Y-61887838D01*
X112300712Y-61895639D01*
X112327401Y-61950246D01*
X112331062Y-61957986D01*
X112347691Y-62000849D01*
X112354840Y-62033037D01*
X112354843Y-62033183D01*
X112353690Y-62039845D01*
X112348123Y-62045327D01*
X112335464Y-62049720D01*
X112313034Y-62053114D01*
X112278154Y-62055598D01*
X112228145Y-62057263D01*
X112160328Y-62058198D01*
X112072024Y-62058494D01*
X111960554Y-62058239D01*
X111823240Y-62057525D01*
X111657401Y-62056440D01*
X111578340Y-62055895D01*
X111425742Y-62054765D01*
X111299985Y-62053603D01*
X111198070Y-62052252D01*
X111116999Y-62050554D01*
X111053772Y-62048352D01*
X111005390Y-62045489D01*
X110968855Y-62041807D01*
X110941168Y-62037151D01*
X110919330Y-62031361D01*
X110900341Y-62024282D01*
X110881204Y-62015755D01*
X110810380Y-61975757D01*
X110728346Y-61905579D01*
X110669854Y-61823414D01*
X110642920Y-61752635D01*
X110624529Y-61665032D01*
X110617796Y-61576718D01*
X110624671Y-61501575D01*
X110648627Y-61421375D01*
X110689276Y-61349221D01*
X110749298Y-61292918D01*
X110834592Y-61245262D01*
X110860336Y-61234265D01*
X110886911Y-61225553D01*
X110918370Y-61218869D01*
X110959102Y-61213803D01*
X111013490Y-61209945D01*
X111085921Y-61206885D01*
X111180781Y-61204211D01*
X111302457Y-61201516D01*
X111379707Y-61199837D01*
X111485642Y-61197088D01*
X111567116Y-61194075D01*
X111628340Y-61190433D01*
X111673521Y-61185796D01*
X111706871Y-61179800D01*
X111732599Y-61172079D01*
X111754914Y-61162268D01*
X111775968Y-61150628D01*
X111826077Y-61105497D01*
X111849697Y-61046388D01*
X111848540Y-60969783D01*
X111836976Y-60927214D01*
X111796207Y-60859457D01*
X111734530Y-60804031D01*
X111658422Y-60767814D01*
X111639276Y-60763847D01*
X111593948Y-60759080D01*
X111525819Y-60755286D01*
X111433209Y-60752419D01*
X111314441Y-60750429D01*
X111167834Y-60749270D01*
X110991712Y-60748895D01*
X110388149Y-60748895D01*
X110367047Y-60698188D01*
X110366368Y-60696548D01*
X110350276Y-60652344D01*
X110340540Y-60616278D01*
X110339824Y-60609906D01*
X110341786Y-60603266D01*
X110349550Y-60597929D01*
X110365937Y-60593754D01*
X110393772Y-60590597D01*
X110435875Y-60588316D01*
X110495070Y-60586769D01*
X110574178Y-60585814D01*
X110676024Y-60585308D01*
X110803428Y-60585109D01*
X110959213Y-60585074D01*
X111069011Y-60585124D01*
G37*
G36*
X133547626Y-58022451D02*
G01*
X133548543Y-58025076D01*
X133559703Y-58056768D01*
X133579882Y-58113884D01*
X133607873Y-58193022D01*
X133642471Y-58290778D01*
X133682469Y-58403749D01*
X133726662Y-58528532D01*
X133773845Y-58661725D01*
X133822810Y-58799923D01*
X133872351Y-58939724D01*
X133921264Y-59077725D01*
X133968342Y-59210522D01*
X134012379Y-59334713D01*
X134052170Y-59446895D01*
X134086507Y-59543664D01*
X134114185Y-59621617D01*
X134133999Y-59677351D01*
X134144742Y-59707464D01*
X134165753Y-59765971D01*
X133252634Y-59765971D01*
X133079486Y-59274509D01*
X127846684Y-59269974D01*
X127358050Y-59269577D01*
X126872569Y-59269242D01*
X126416988Y-59268994D01*
X125990636Y-59268836D01*
X125592846Y-59268770D01*
X125222946Y-59268796D01*
X124880268Y-59268916D01*
X124564143Y-59269133D01*
X124273900Y-59269448D01*
X124008870Y-59269861D01*
X123768385Y-59270377D01*
X123551773Y-59270994D01*
X123358367Y-59271717D01*
X123187496Y-59272545D01*
X123038492Y-59273482D01*
X122910683Y-59274528D01*
X122803402Y-59275685D01*
X122715979Y-59276955D01*
X122647744Y-59278339D01*
X122598028Y-59279840D01*
X122566161Y-59281458D01*
X122551474Y-59283196D01*
X122487597Y-59307344D01*
X122414356Y-59358266D01*
X122361607Y-59430021D01*
X122328162Y-59524403D01*
X122312830Y-59643207D01*
X122311599Y-59702825D01*
X122322046Y-59809343D01*
X122351242Y-59894271D01*
X122400572Y-59960836D01*
X122471422Y-60012262D01*
X122473554Y-60013305D01*
X122480215Y-60015570D01*
X122490170Y-60017703D01*
X122504349Y-60019711D01*
X122523684Y-60021598D01*
X122549104Y-60023369D01*
X122581539Y-60025032D01*
X122621920Y-60026589D01*
X122671178Y-60028048D01*
X122730241Y-60029414D01*
X122800042Y-60030692D01*
X122881510Y-60031887D01*
X122975575Y-60033005D01*
X123083168Y-60034051D01*
X123205219Y-60035031D01*
X123342659Y-60035950D01*
X123496417Y-60036814D01*
X123667425Y-60037627D01*
X123856612Y-60038396D01*
X124064908Y-60039126D01*
X124293245Y-60039822D01*
X124542552Y-60040490D01*
X124813759Y-60041135D01*
X125107798Y-60041763D01*
X125425598Y-60042378D01*
X125768090Y-60042987D01*
X126136204Y-60043595D01*
X126530870Y-60044207D01*
X126953018Y-60044829D01*
X127403580Y-60045466D01*
X127883484Y-60046123D01*
X128393663Y-60046806D01*
X134267056Y-60054607D01*
X134411267Y-60460258D01*
X134413710Y-60467134D01*
X134451398Y-60574129D01*
X134485342Y-60672173D01*
X134514175Y-60757183D01*
X134536529Y-60825081D01*
X134551037Y-60871784D01*
X134556332Y-60893213D01*
X134556334Y-60893352D01*
X134555274Y-60895702D01*
X134551531Y-60897912D01*
X134544183Y-60899988D01*
X134532310Y-60901933D01*
X134514993Y-60903751D01*
X134491312Y-60905448D01*
X134460346Y-60907026D01*
X134421176Y-60908490D01*
X134372881Y-60909845D01*
X134314542Y-60911095D01*
X134245239Y-60912243D01*
X134164052Y-60913295D01*
X134070060Y-60914254D01*
X133962344Y-60915124D01*
X133839983Y-60915911D01*
X133702059Y-60916618D01*
X133547650Y-60917249D01*
X133375837Y-60917808D01*
X133185700Y-60918301D01*
X132976319Y-60918730D01*
X132746773Y-60919101D01*
X132496144Y-60919417D01*
X132223510Y-60919683D01*
X131927952Y-60919903D01*
X131608550Y-60920082D01*
X131264384Y-60920222D01*
X130894534Y-60920330D01*
X130498080Y-60920408D01*
X130074102Y-60920462D01*
X129621680Y-60920495D01*
X129139894Y-60920512D01*
X128627824Y-60920516D01*
X128206621Y-60920498D01*
X127650337Y-60920409D01*
X127124716Y-60920248D01*
X126629444Y-60920012D01*
X126164206Y-60919701D01*
X125728690Y-60919315D01*
X125322580Y-60918852D01*
X124945563Y-60918311D01*
X124597324Y-60917693D01*
X124277550Y-60916994D01*
X123985927Y-60916216D01*
X123722140Y-60915357D01*
X123485876Y-60914416D01*
X123276821Y-60913392D01*
X123094659Y-60912285D01*
X122939079Y-60911093D01*
X122809764Y-60909816D01*
X122706402Y-60908453D01*
X122628678Y-60907003D01*
X122576279Y-60905465D01*
X122548890Y-60903838D01*
X122415422Y-60884027D01*
X122216520Y-60833585D01*
X122037196Y-60760703D01*
X121878443Y-60666015D01*
X121741252Y-60550151D01*
X121626615Y-60413747D01*
X121535523Y-60257433D01*
X121516827Y-60217197D01*
X121484287Y-60139031D01*
X121460591Y-60065286D01*
X121444436Y-59988854D01*
X121434518Y-59902627D01*
X121429533Y-59799498D01*
X121428175Y-59672359D01*
X121428330Y-59592652D01*
X121429325Y-59512067D01*
X121431876Y-59451173D01*
X121436698Y-59403469D01*
X121444508Y-59362457D01*
X121456019Y-59321637D01*
X121471948Y-59274509D01*
X121512620Y-59169906D01*
X121584056Y-59029822D01*
X121673476Y-58901173D01*
X121786977Y-58774278D01*
X121886558Y-58681018D01*
X122006839Y-58590790D01*
X122136728Y-58518965D01*
X122286240Y-58459223D01*
X122411056Y-58416401D01*
X127587008Y-58412363D01*
X127912315Y-58412089D01*
X128372549Y-58411628D01*
X128813887Y-58411098D01*
X129235645Y-58410501D01*
X129637139Y-58409841D01*
X130017687Y-58409118D01*
X130376602Y-58408336D01*
X130713204Y-58407497D01*
X131026806Y-58406604D01*
X131316726Y-58405658D01*
X131582279Y-58404663D01*
X131822783Y-58403621D01*
X132037553Y-58402534D01*
X132225905Y-58401405D01*
X132387156Y-58400236D01*
X132520622Y-58399030D01*
X132625620Y-58397789D01*
X132701464Y-58396515D01*
X132747472Y-58395211D01*
X132762960Y-58393880D01*
X132762680Y-58391796D01*
X132755535Y-58366501D01*
X132740201Y-58319100D01*
X132718625Y-58255479D01*
X132692751Y-58181520D01*
X132686432Y-58163650D01*
X132661395Y-58091674D01*
X132641106Y-58031481D01*
X132627507Y-57988928D01*
X132622543Y-57969874D01*
X132623343Y-57969048D01*
X132644872Y-57965591D01*
X132692905Y-57962500D01*
X132763616Y-57959894D01*
X132853176Y-57957888D01*
X132957757Y-57956599D01*
X133073533Y-57956143D01*
X133524523Y-57956143D01*
X133547626Y-58022451D01*
G37*
G36*
X133263295Y-57216939D02*
G01*
X133269451Y-57234338D01*
X133307243Y-57341110D01*
X133341486Y-57437768D01*
X133370809Y-57520451D01*
X133393842Y-57585299D01*
X133409215Y-57628449D01*
X133415558Y-57646041D01*
X133403288Y-57646941D01*
X133360996Y-57647944D01*
X133289608Y-57648951D01*
X133190230Y-57649959D01*
X133063968Y-57650964D01*
X132911931Y-57651962D01*
X132735224Y-57652951D01*
X132534954Y-57653925D01*
X132312228Y-57654882D01*
X132068152Y-57655818D01*
X131803834Y-57656730D01*
X131520381Y-57657613D01*
X131218898Y-57658465D01*
X130900493Y-57659281D01*
X130566273Y-57660058D01*
X130217343Y-57660793D01*
X129854812Y-57661481D01*
X129479785Y-57662119D01*
X129093370Y-57662704D01*
X128696673Y-57663232D01*
X128290800Y-57663699D01*
X127876860Y-57664102D01*
X127451217Y-57664465D01*
X126978076Y-57664843D01*
X126534320Y-57665183D01*
X126118962Y-57665503D01*
X125731018Y-57665820D01*
X125369505Y-57666152D01*
X125033438Y-57666515D01*
X124721831Y-57666927D01*
X124433702Y-57667405D01*
X124168065Y-57667967D01*
X123923936Y-57668630D01*
X123700331Y-57669411D01*
X123496265Y-57670328D01*
X123310753Y-57671397D01*
X123142813Y-57672637D01*
X122991458Y-57674063D01*
X122855704Y-57675695D01*
X122734568Y-57677549D01*
X122627064Y-57679641D01*
X122532209Y-57681991D01*
X122449017Y-57684614D01*
X122376505Y-57687529D01*
X122313688Y-57690752D01*
X122259582Y-57694301D01*
X122213201Y-57698193D01*
X122173563Y-57702446D01*
X122139682Y-57707076D01*
X122110573Y-57712101D01*
X122085254Y-57717539D01*
X122062738Y-57723406D01*
X122042042Y-57729720D01*
X122022181Y-57736499D01*
X122002171Y-57743758D01*
X121981028Y-57751517D01*
X121957767Y-57759792D01*
X121931403Y-57768601D01*
X121831021Y-57803408D01*
X121657866Y-57878632D01*
X121500380Y-57970043D01*
X121350936Y-58082363D01*
X121201904Y-58220318D01*
X121111709Y-58317766D01*
X120979972Y-58492186D01*
X120872529Y-58681576D01*
X120788402Y-58888101D01*
X120726611Y-59113925D01*
X120686178Y-59361214D01*
X120681683Y-59407641D01*
X120675627Y-59524814D01*
X120674270Y-59657923D01*
X120677330Y-59797574D01*
X120684524Y-59934374D01*
X120695571Y-60058929D01*
X120710190Y-60161848D01*
X120711638Y-60169668D01*
X120770464Y-60408724D01*
X120853894Y-60629402D01*
X120961444Y-60831028D01*
X121092630Y-61012929D01*
X121246967Y-61174429D01*
X121423970Y-61314853D01*
X121623157Y-61433527D01*
X121673393Y-61458376D01*
X121906511Y-61552933D01*
X122149844Y-61619327D01*
X122154948Y-61620318D01*
X122168576Y-61622398D01*
X122186325Y-61624360D01*
X122209099Y-61626210D01*
X122237801Y-61627951D01*
X122273334Y-61629588D01*
X122316599Y-61631125D01*
X122368501Y-61632565D01*
X122429941Y-61633914D01*
X122501822Y-61635176D01*
X122585047Y-61636355D01*
X122680519Y-61637455D01*
X122789141Y-61638480D01*
X122911815Y-61639434D01*
X123049443Y-61640323D01*
X123202930Y-61641150D01*
X123373176Y-61641919D01*
X123561086Y-61642634D01*
X123767562Y-61643300D01*
X123993506Y-61643922D01*
X124239821Y-61644502D01*
X124507411Y-61645047D01*
X124797177Y-61645559D01*
X125110022Y-61646043D01*
X125446850Y-61646503D01*
X125808562Y-61646944D01*
X126196062Y-61647369D01*
X126610253Y-61647784D01*
X127052036Y-61648191D01*
X127522315Y-61648597D01*
X128021993Y-61649003D01*
X128551972Y-61649416D01*
X134833305Y-61654222D01*
X135101318Y-62414611D01*
X135119196Y-62465362D01*
X135169884Y-62609573D01*
X135216946Y-62743933D01*
X135259412Y-62865647D01*
X135296315Y-62971921D01*
X135326684Y-63059958D01*
X135349553Y-63126965D01*
X135363951Y-63170144D01*
X135368910Y-63186702D01*
X135367964Y-63187450D01*
X135345880Y-63190377D01*
X135297433Y-63192997D01*
X135226514Y-63195211D01*
X135137015Y-63196917D01*
X135032826Y-63198015D01*
X134917840Y-63198403D01*
X134467192Y-63198403D01*
X134225224Y-62511917D01*
X128393099Y-62511917D01*
X127888081Y-62511887D01*
X127330121Y-62511777D01*
X126802987Y-62511587D01*
X126306476Y-62511314D01*
X125840384Y-62510959D01*
X125404508Y-62510521D01*
X124998646Y-62509999D01*
X124622594Y-62509394D01*
X124276149Y-62508704D01*
X123959107Y-62507929D01*
X123671266Y-62507068D01*
X123412422Y-62506121D01*
X123182373Y-62505087D01*
X122980915Y-62503966D01*
X122807844Y-62502757D01*
X122662958Y-62501459D01*
X122546054Y-62500072D01*
X122456928Y-62498596D01*
X122395378Y-62497030D01*
X122361200Y-62495372D01*
X122328575Y-62492527D01*
X122019771Y-62450616D01*
X121726412Y-62383080D01*
X121449549Y-62290264D01*
X121190232Y-62172516D01*
X120949513Y-62030181D01*
X120755049Y-61886031D01*
X120552855Y-61701371D01*
X120372036Y-61497240D01*
X120213124Y-61275856D01*
X120076651Y-61039437D01*
X119963150Y-60790201D01*
X119873153Y-60530364D01*
X119807191Y-60262146D01*
X119765797Y-59987762D01*
X119749503Y-59709431D01*
X119758840Y-59429370D01*
X119794342Y-59149797D01*
X119856540Y-58872930D01*
X119945966Y-58600985D01*
X120063152Y-58336181D01*
X120080338Y-58302438D01*
X120164975Y-58148050D01*
X120252617Y-58010006D01*
X120349201Y-57880201D01*
X120460661Y-57750532D01*
X120592933Y-57612896D01*
X120630202Y-57576181D01*
X120821051Y-57403538D01*
X121013204Y-57256977D01*
X121211210Y-57134233D01*
X121419617Y-57033039D01*
X121642973Y-56951132D01*
X121885828Y-56886246D01*
X122152729Y-56836116D01*
X122154266Y-56835880D01*
X122171431Y-56833570D01*
X122192200Y-56831400D01*
X122217558Y-56829363D01*
X122248490Y-56827455D01*
X122285982Y-56825670D01*
X122331020Y-56824003D01*
X122384589Y-56822448D01*
X122447677Y-56821000D01*
X122521267Y-56819653D01*
X122606346Y-56818403D01*
X122703900Y-56817244D01*
X122814914Y-56816170D01*
X122940375Y-56815176D01*
X123081267Y-56814256D01*
X123238578Y-56813406D01*
X123413291Y-56812621D01*
X123606394Y-56811893D01*
X123818872Y-56811219D01*
X124051710Y-56810593D01*
X124305895Y-56810009D01*
X124582412Y-56809462D01*
X124882247Y-56808947D01*
X125206385Y-56808458D01*
X125555814Y-56807990D01*
X125931517Y-56807538D01*
X126334481Y-56807096D01*
X126765692Y-56806659D01*
X127226135Y-56806221D01*
X127716796Y-56805777D01*
X133116149Y-56800993D01*
X133263295Y-57216939D01*
G37*
%TD*%
M02*
