%TF.GenerationSoftware,KiCad,Pcbnew,9.0.0*%
%TF.CreationDate,2025-04-30T17:52:17+02:00*%
%TF.ProjectId,PUTM_EV_VOLTAGE_INDICATOR_2024,5055544d-5f45-4565-9f56-4f4c54414745,rev?*%
%TF.SameCoordinates,Original*%
%TF.FileFunction,Copper,L1,Top*%
%TF.FilePolarity,Positive*%
%FSLAX46Y46*%
G04 Gerber Fmt 4.6, Leading zero omitted, Abs format (unit mm)*
G04 Created by KiCad (PCBNEW 9.0.0) date 2025-04-30 17:52:17*
%MOMM*%
%LPD*%
G01*
G04 APERTURE LIST*
G04 Aperture macros list*
%AMRoundRect*
0 Rectangle with rounded corners*
0 $1 Rounding radius*
0 $2 $3 $4 $5 $6 $7 $8 $9 X,Y pos of 4 corners*
0 Add a 4 corners polygon primitive as box body*
4,1,4,$2,$3,$4,$5,$6,$7,$8,$9,$2,$3,0*
0 Add four circle primitives for the rounded corners*
1,1,$1+$1,$2,$3*
1,1,$1+$1,$4,$5*
1,1,$1+$1,$6,$7*
1,1,$1+$1,$8,$9*
0 Add four rect primitives between the rounded corners*
20,1,$1+$1,$2,$3,$4,$5,0*
20,1,$1+$1,$4,$5,$6,$7,0*
20,1,$1+$1,$6,$7,$8,$9,0*
20,1,$1+$1,$8,$9,$2,$3,0*%
G04 Aperture macros list end*
%TA.AperFunction,ComponentPad*%
%ADD10RoundRect,0.250000X-0.550000X0.550000X-0.550000X-0.550000X0.550000X-0.550000X0.550000X0.550000X0*%
%TD*%
%TA.AperFunction,ComponentPad*%
%ADD11RoundRect,0.250000X0.550000X0.550000X-0.550000X0.550000X-0.550000X-0.550000X0.550000X-0.550000X0*%
%TD*%
%TA.AperFunction,SMDPad,CuDef*%
%ADD12RoundRect,0.200000X0.275000X-0.200000X0.275000X0.200000X-0.275000X0.200000X-0.275000X-0.200000X0*%
%TD*%
%TA.AperFunction,SMDPad,CuDef*%
%ADD13RoundRect,0.150000X-0.512500X-0.150000X0.512500X-0.150000X0.512500X0.150000X-0.512500X0.150000X0*%
%TD*%
%TA.AperFunction,SMDPad,CuDef*%
%ADD14RoundRect,0.200000X-0.275000X0.200000X-0.275000X-0.200000X0.275000X-0.200000X0.275000X0.200000X0*%
%TD*%
%TA.AperFunction,ComponentPad*%
%ADD15RoundRect,0.250000X-0.550000X-0.550000X0.550000X-0.550000X0.550000X0.550000X-0.550000X0.550000X0*%
%TD*%
%TA.AperFunction,SMDPad,CuDef*%
%ADD16R,5.720000X3.680000*%
%TD*%
%TA.AperFunction,SMDPad,CuDef*%
%ADD17R,2.210000X3.680000*%
%TD*%
%TA.AperFunction,ViaPad*%
%ADD18C,0.600000*%
%TD*%
%TA.AperFunction,Conductor*%
%ADD19C,2.000000*%
%TD*%
%TA.AperFunction,Conductor*%
%ADD20C,0.500000*%
%TD*%
G04 APERTURE END LIST*
D10*
%TO.P,J11,1,Pin_1*%
%TO.N,/HV+*%
X98975000Y-70000000D03*
%TD*%
%TO.P,J12,1,Pin_1*%
%TO.N,/GND*%
X98975000Y-55000000D03*
%TD*%
D11*
%TO.P,J20,1,Pin_1*%
%TO.N,/LED_SINK*%
X141000000Y-58950000D03*
%TD*%
D12*
%TO.P,R1,1*%
%TO.N,/15V+*%
X145000000Y-63825000D03*
%TO.P,R1,2*%
%TO.N,/LED_POW*%
X145000000Y-62175000D03*
%TD*%
D11*
%TO.P,J17,1,Pin_1*%
%TO.N,/LED_POW*%
X145000000Y-58950000D03*
%TD*%
D13*
%TO.P,U2,1*%
%TO.N,/HV_MES*%
X128025000Y-64100000D03*
%TO.P,U2,2*%
%TO.N,/GND*%
X128025000Y-65050000D03*
%TO.P,U2,3*%
%TO.N,/REF*%
X128025000Y-66000000D03*
%TO.P,U2,4*%
%TO.N,/LED_SINK*%
X130300000Y-66000000D03*
%TO.P,U2,5*%
%TO.N,/15V+*%
X130300000Y-64100000D03*
%TD*%
D14*
%TO.P,R3,1*%
%TO.N,/REF*%
X125000000Y-65175000D03*
%TO.P,R3,2*%
%TO.N,/GND*%
X125000000Y-66825000D03*
%TD*%
D15*
%TO.P,J15,1,Pin_1*%
%TO.N,/15V+*%
X141000000Y-71025000D03*
%TD*%
D16*
%TO.P,RD1,1*%
%TO.N,/HV+*%
X107000000Y-70080000D03*
D17*
%TO.P,RD1,2*%
%TO.N,/GND*%
X108755000Y-59920000D03*
%TO.P,RD1,3*%
%TO.N,/HV_MES*%
X105245000Y-59920000D03*
%TD*%
D14*
%TO.P,R2,1*%
%TO.N,/15V+*%
X125000000Y-61175000D03*
%TO.P,R2,2*%
%TO.N,/REF*%
X125000000Y-62825000D03*
%TD*%
D15*
%TO.P,J16,1,Pin_1*%
%TO.N,/GND*%
X145000000Y-71025000D03*
%TD*%
D18*
%TO.N,/GND*%
X129050000Y-65050000D03*
%TO.N,/LED_SINK*%
X134000000Y-66000000D03*
X136000000Y-64000000D03*
%TO.N,/HV_MES*%
X126500000Y-64100000D03*
X123500000Y-64100000D03*
%TD*%
D19*
%TO.N,/HV+*%
X107000000Y-70080000D02*
X99055000Y-70080000D01*
X99055000Y-70080000D02*
X98975000Y-70000000D01*
D20*
%TO.N,/15V+*%
X127212500Y-61175000D02*
X130137500Y-64100000D01*
X134075000Y-64100000D02*
X141000000Y-71025000D01*
X125000000Y-61175000D02*
X127212500Y-61175000D01*
X130137500Y-64100000D02*
X134075000Y-64100000D01*
X145000000Y-67025000D02*
X141000000Y-71025000D01*
X145000000Y-63825000D02*
X145000000Y-67025000D01*
%TO.N,/GND*%
X129050000Y-65050000D02*
X127862500Y-65050000D01*
%TO.N,/LED_POW*%
X145000000Y-62175000D02*
X145000000Y-58950000D01*
%TO.N,/LED_SINK*%
X134000000Y-66000000D02*
X130137500Y-66000000D01*
X141000000Y-58950000D02*
X136000000Y-63950000D01*
X136000000Y-63950000D02*
X136000000Y-64000000D01*
%TO.N,/REF*%
X125000000Y-62825000D02*
X125000000Y-64000000D01*
X125000000Y-64000000D02*
X125000000Y-65175000D01*
X125000000Y-65175000D02*
X125825000Y-66000000D01*
X125825000Y-66000000D02*
X128025000Y-66000000D01*
%TO.N,/HV_MES*%
X122400000Y-63000000D02*
X107000000Y-63000000D01*
X107000000Y-63000000D02*
X105245000Y-61245000D01*
X123500000Y-64100000D02*
X122400000Y-63000000D01*
X126500000Y-64100000D02*
X128025000Y-64100000D01*
X105245000Y-61245000D02*
X105245000Y-59920000D01*
%TD*%
%TA.AperFunction,Conductor*%
%TO.N,/GND*%
G36*
X149442539Y-50520185D02*
G01*
X149488294Y-50572989D01*
X149499500Y-50624500D01*
X149499500Y-79375500D01*
X149479815Y-79442539D01*
X149427011Y-79488294D01*
X149375500Y-79499500D01*
X120624000Y-79499500D01*
X120556961Y-79479815D01*
X120511206Y-79427011D01*
X120500000Y-79375500D01*
X120500000Y-77123543D01*
X139999499Y-77123543D01*
X140037947Y-77316829D01*
X140037950Y-77316839D01*
X140113364Y-77498907D01*
X140113371Y-77498920D01*
X140222860Y-77662781D01*
X140222863Y-77662785D01*
X140362214Y-77802136D01*
X140362218Y-77802139D01*
X140526079Y-77911628D01*
X140526092Y-77911635D01*
X140708160Y-77987049D01*
X140708165Y-77987051D01*
X140708169Y-77987051D01*
X140708170Y-77987052D01*
X140901456Y-78025500D01*
X140901459Y-78025500D01*
X141098543Y-78025500D01*
X141228582Y-77999632D01*
X141291835Y-77987051D01*
X141473914Y-77911632D01*
X141637782Y-77802139D01*
X141777139Y-77662782D01*
X141886632Y-77498914D01*
X141962051Y-77316835D01*
X142000500Y-77123543D01*
X143999499Y-77123543D01*
X144037947Y-77316829D01*
X144037950Y-77316839D01*
X144113364Y-77498907D01*
X144113371Y-77498920D01*
X144222860Y-77662781D01*
X144222863Y-77662785D01*
X144362214Y-77802136D01*
X144362218Y-77802139D01*
X144526079Y-77911628D01*
X144526092Y-77911635D01*
X144708160Y-77987049D01*
X144708165Y-77987051D01*
X144708169Y-77987051D01*
X144708170Y-77987052D01*
X144901456Y-78025500D01*
X144901459Y-78025500D01*
X145098543Y-78025500D01*
X145228582Y-77999632D01*
X145291835Y-77987051D01*
X145473914Y-77911632D01*
X145637782Y-77802139D01*
X145777139Y-77662782D01*
X145886632Y-77498914D01*
X145962051Y-77316835D01*
X146000500Y-77123541D01*
X146000500Y-76926459D01*
X146000500Y-76926456D01*
X145962052Y-76733170D01*
X145962051Y-76733169D01*
X145962051Y-76733165D01*
X145962049Y-76733160D01*
X145886635Y-76551092D01*
X145886628Y-76551079D01*
X145777139Y-76387218D01*
X145777136Y-76387214D01*
X145637785Y-76247863D01*
X145637781Y-76247860D01*
X145473920Y-76138371D01*
X145473907Y-76138364D01*
X145291839Y-76062950D01*
X145291829Y-76062947D01*
X145098543Y-76024500D01*
X145098541Y-76024500D01*
X144901459Y-76024500D01*
X144901457Y-76024500D01*
X144708170Y-76062947D01*
X144708160Y-76062950D01*
X144526092Y-76138364D01*
X144526079Y-76138371D01*
X144362218Y-76247860D01*
X144362214Y-76247863D01*
X144222863Y-76387214D01*
X144222860Y-76387218D01*
X144113371Y-76551079D01*
X144113364Y-76551092D01*
X144037950Y-76733160D01*
X144037947Y-76733170D01*
X143999500Y-76926456D01*
X143999500Y-76926459D01*
X143999500Y-77123541D01*
X143999500Y-77123543D01*
X143999499Y-77123543D01*
X142000500Y-77123543D01*
X142000500Y-77123541D01*
X142000500Y-76926459D01*
X142000500Y-76926456D01*
X141962052Y-76733170D01*
X141962051Y-76733169D01*
X141962051Y-76733165D01*
X141962049Y-76733160D01*
X141886635Y-76551092D01*
X141886628Y-76551079D01*
X141777139Y-76387218D01*
X141777136Y-76387214D01*
X141637785Y-76247863D01*
X141637781Y-76247860D01*
X141473920Y-76138371D01*
X141473907Y-76138364D01*
X141291839Y-76062950D01*
X141291829Y-76062947D01*
X141098543Y-76024500D01*
X141098541Y-76024500D01*
X140901459Y-76024500D01*
X140901457Y-76024500D01*
X140708170Y-76062947D01*
X140708160Y-76062950D01*
X140526092Y-76138364D01*
X140526079Y-76138371D01*
X140362218Y-76247860D01*
X140362214Y-76247863D01*
X140222863Y-76387214D01*
X140222860Y-76387218D01*
X140113371Y-76551079D01*
X140113364Y-76551092D01*
X140037950Y-76733160D01*
X140037947Y-76733170D01*
X139999500Y-76926456D01*
X139999500Y-76926459D01*
X139999500Y-77123541D01*
X139999500Y-77123543D01*
X139999499Y-77123543D01*
X120500000Y-77123543D01*
X120500000Y-67081582D01*
X124025001Y-67081582D01*
X124031408Y-67152102D01*
X124031409Y-67152107D01*
X124081981Y-67314396D01*
X124169927Y-67459877D01*
X124290122Y-67580072D01*
X124435604Y-67668019D01*
X124435603Y-67668019D01*
X124597894Y-67718590D01*
X124597892Y-67718590D01*
X124668418Y-67724999D01*
X125250000Y-67724999D01*
X125331581Y-67724999D01*
X125402102Y-67718591D01*
X125402107Y-67718590D01*
X125564396Y-67668018D01*
X125709877Y-67580072D01*
X125830072Y-67459877D01*
X125918019Y-67314395D01*
X125968590Y-67152106D01*
X125975000Y-67081572D01*
X125975000Y-67075000D01*
X125250000Y-67075000D01*
X125250000Y-67724999D01*
X124668418Y-67724999D01*
X124749999Y-67724998D01*
X124750000Y-67724998D01*
X124750000Y-67075000D01*
X124025001Y-67075000D01*
X124025001Y-67081582D01*
X120500000Y-67081582D01*
X120500000Y-65000000D01*
X90624500Y-65000000D01*
X90557461Y-64980315D01*
X90511706Y-64927511D01*
X90500500Y-64876000D01*
X90500500Y-58032135D01*
X103639500Y-58032135D01*
X103639500Y-61807870D01*
X103639501Y-61807876D01*
X103645908Y-61867483D01*
X103696202Y-62002328D01*
X103696206Y-62002335D01*
X103782452Y-62117544D01*
X103782455Y-62117547D01*
X103897664Y-62203793D01*
X103897671Y-62203797D01*
X104032517Y-62254091D01*
X104032516Y-62254091D01*
X104039444Y-62254835D01*
X104092127Y-62260500D01*
X105147769Y-62260499D01*
X105214808Y-62280183D01*
X105235450Y-62296818D01*
X106521586Y-63582954D01*
X106544712Y-63598405D01*
X106579404Y-63621585D01*
X106644505Y-63665084D01*
X106644507Y-63665085D01*
X106644511Y-63665087D01*
X106779066Y-63720821D01*
X106781087Y-63721658D01*
X106781091Y-63721658D01*
X106781092Y-63721659D01*
X106926079Y-63750500D01*
X106926082Y-63750500D01*
X106926083Y-63750500D01*
X107073918Y-63750500D01*
X122037770Y-63750500D01*
X122104809Y-63770185D01*
X122125451Y-63786819D01*
X122753927Y-64415295D01*
X122780807Y-64455523D01*
X122790604Y-64479175D01*
X122790609Y-64479185D01*
X122878210Y-64610288D01*
X122878213Y-64610292D01*
X122989707Y-64721786D01*
X122989711Y-64721789D01*
X123120814Y-64809390D01*
X123120827Y-64809397D01*
X123266498Y-64869735D01*
X123266503Y-64869737D01*
X123421153Y-64900499D01*
X123421156Y-64900500D01*
X123421158Y-64900500D01*
X123578844Y-64900500D01*
X123578845Y-64900499D01*
X123733497Y-64869737D01*
X123800631Y-64841929D01*
X123853048Y-64820218D01*
X123922517Y-64812749D01*
X123984996Y-64844024D01*
X124020648Y-64904113D01*
X124024500Y-64934779D01*
X124024500Y-65431613D01*
X124030913Y-65502192D01*
X124081522Y-65664606D01*
X124169530Y-65810188D01*
X124272015Y-65912673D01*
X124305500Y-65973996D01*
X124300516Y-66043688D01*
X124272015Y-66088035D01*
X124169928Y-66190121D01*
X124169927Y-66190122D01*
X124081980Y-66335604D01*
X124031409Y-66497893D01*
X124025000Y-66568427D01*
X124025000Y-66575000D01*
X125297069Y-66575000D01*
X125364108Y-66594685D01*
X125365960Y-66595898D01*
X125469498Y-66665080D01*
X125469511Y-66665087D01*
X125606082Y-66721656D01*
X125606087Y-66721658D01*
X125606091Y-66721658D01*
X125606092Y-66721659D01*
X125751079Y-66750500D01*
X125751082Y-66750500D01*
X127230172Y-66750500D01*
X127264767Y-66755424D01*
X127409926Y-66797597D01*
X127409929Y-66797597D01*
X127409931Y-66797598D01*
X127446806Y-66800500D01*
X127446814Y-66800500D01*
X128603186Y-66800500D01*
X128603194Y-66800500D01*
X128640069Y-66797598D01*
X128640071Y-66797597D01*
X128640073Y-66797597D01*
X128735959Y-66769739D01*
X128797898Y-66751744D01*
X128939365Y-66668081D01*
X129055581Y-66551865D01*
X129055767Y-66551549D01*
X129055977Y-66551353D01*
X129060361Y-66545702D01*
X129061272Y-66546409D01*
X129106836Y-66503866D01*
X129175577Y-66491362D01*
X129240167Y-66518006D01*
X129264355Y-66545921D01*
X129264639Y-66545702D01*
X129268679Y-66550911D01*
X129269232Y-66551548D01*
X129269419Y-66551865D01*
X129269421Y-66551867D01*
X129269423Y-66551870D01*
X129385629Y-66668076D01*
X129385633Y-66668079D01*
X129385635Y-66668081D01*
X129527102Y-66751744D01*
X129539769Y-66755424D01*
X129684926Y-66797597D01*
X129684929Y-66797597D01*
X129684931Y-66797598D01*
X129721806Y-66800500D01*
X129721814Y-66800500D01*
X130878186Y-66800500D01*
X130878194Y-66800500D01*
X130915069Y-66797598D01*
X130915071Y-66797597D01*
X130915073Y-66797597D01*
X131060233Y-66755424D01*
X131094828Y-66750500D01*
X133695396Y-66750500D01*
X133742844Y-66759937D01*
X133766503Y-66769737D01*
X133766508Y-66769738D01*
X133766511Y-66769739D01*
X133921153Y-66800499D01*
X133921156Y-66800500D01*
X133921158Y-66800500D01*
X134078844Y-66800500D01*
X134078845Y-66800499D01*
X134233497Y-66769737D01*
X134349576Y-66721656D01*
X134379172Y-66709397D01*
X134379172Y-66709396D01*
X134379179Y-66709394D01*
X134510289Y-66621789D01*
X134621789Y-66510289D01*
X134709394Y-66379179D01*
X134769737Y-66233497D01*
X134787092Y-66146247D01*
X134819476Y-66084337D01*
X134880192Y-66049763D01*
X134949961Y-66053502D01*
X134996390Y-66082758D01*
X139663181Y-70749549D01*
X139696666Y-70810872D01*
X139699500Y-70837230D01*
X139699500Y-71625001D01*
X139699501Y-71625019D01*
X139710000Y-71727796D01*
X139710001Y-71727799D01*
X139765115Y-71894119D01*
X139765186Y-71894334D01*
X139857288Y-72043656D01*
X139981344Y-72167712D01*
X140130666Y-72259814D01*
X140297203Y-72314999D01*
X140399991Y-72325500D01*
X141600008Y-72325499D01*
X141702797Y-72314999D01*
X141869334Y-72259814D01*
X142018656Y-72167712D01*
X142142712Y-72043656D01*
X142234814Y-71894334D01*
X142289999Y-71727797D01*
X142300500Y-71625009D01*
X142300500Y-71624986D01*
X143700001Y-71624986D01*
X143710494Y-71727697D01*
X143765641Y-71894119D01*
X143765643Y-71894124D01*
X143857684Y-72043345D01*
X143981654Y-72167315D01*
X144130875Y-72259356D01*
X144130880Y-72259358D01*
X144297302Y-72314505D01*
X144297309Y-72314506D01*
X144400019Y-72324999D01*
X144749999Y-72324999D01*
X145250000Y-72324999D01*
X145599972Y-72324999D01*
X145599986Y-72324998D01*
X145702697Y-72314505D01*
X145869119Y-72259358D01*
X145869124Y-72259356D01*
X146018345Y-72167315D01*
X146142315Y-72043345D01*
X146234356Y-71894124D01*
X146234358Y-71894119D01*
X146289505Y-71727697D01*
X146289506Y-71727690D01*
X146299999Y-71624986D01*
X146300000Y-71624973D01*
X146300000Y-71275000D01*
X145250000Y-71275000D01*
X145250000Y-72324999D01*
X144749999Y-72324999D01*
X144750000Y-72324998D01*
X144750000Y-71275000D01*
X143700001Y-71275000D01*
X143700001Y-71624986D01*
X142300500Y-71624986D01*
X142300499Y-70985504D01*
X144700000Y-70985504D01*
X144700000Y-71064496D01*
X144720444Y-71140796D01*
X144759940Y-71209205D01*
X144815795Y-71265060D01*
X144884204Y-71304556D01*
X144960504Y-71325000D01*
X145039496Y-71325000D01*
X145115796Y-71304556D01*
X145184205Y-71265060D01*
X145240060Y-71209205D01*
X145279556Y-71140796D01*
X145300000Y-71064496D01*
X145300000Y-70985504D01*
X145279556Y-70909204D01*
X145240060Y-70840795D01*
X145184205Y-70784940D01*
X145166988Y-70775000D01*
X145250000Y-70775000D01*
X146299999Y-70775000D01*
X146299999Y-70425028D01*
X146299998Y-70425013D01*
X146289505Y-70322302D01*
X146234358Y-70155880D01*
X146234356Y-70155875D01*
X146142315Y-70006654D01*
X146018345Y-69882684D01*
X145869124Y-69790643D01*
X145869119Y-69790641D01*
X145702697Y-69735494D01*
X145702690Y-69735493D01*
X145599986Y-69725000D01*
X145250000Y-69725000D01*
X145250000Y-70775000D01*
X145166988Y-70775000D01*
X145115796Y-70745444D01*
X145039496Y-70725000D01*
X144960504Y-70725000D01*
X144884204Y-70745444D01*
X144815795Y-70784940D01*
X144759940Y-70840795D01*
X144720444Y-70909204D01*
X144700000Y-70985504D01*
X142300499Y-70985504D01*
X142300499Y-70837228D01*
X142320184Y-70770190D01*
X142336813Y-70749553D01*
X142661353Y-70425013D01*
X143700000Y-70425013D01*
X143700000Y-70775000D01*
X144750000Y-70775000D01*
X144750000Y-69725000D01*
X144400028Y-69725000D01*
X144400012Y-69725001D01*
X144297302Y-69735494D01*
X144130880Y-69790641D01*
X144130875Y-69790643D01*
X143981654Y-69882684D01*
X143857684Y-70006654D01*
X143765643Y-70155875D01*
X143765641Y-70155880D01*
X143710494Y-70322302D01*
X143710493Y-70322309D01*
X143700000Y-70425013D01*
X142661353Y-70425013D01*
X145582951Y-67503416D01*
X145665084Y-67380495D01*
X145721658Y-67243913D01*
X145750500Y-67098918D01*
X145750500Y-66951083D01*
X145750500Y-64591519D01*
X145770185Y-64524480D01*
X145786820Y-64503837D01*
X145790657Y-64500000D01*
X145830472Y-64460185D01*
X145918478Y-64314606D01*
X145969086Y-64152196D01*
X145975500Y-64081616D01*
X145975500Y-63568384D01*
X145969086Y-63497804D01*
X145918478Y-63335394D01*
X145830472Y-63189815D01*
X145830470Y-63189813D01*
X145830469Y-63189811D01*
X145728339Y-63087681D01*
X145694854Y-63026358D01*
X145699838Y-62956666D01*
X145728339Y-62912319D01*
X145830468Y-62810189D01*
X145830469Y-62810188D01*
X145830472Y-62810185D01*
X145918478Y-62664606D01*
X145969086Y-62502196D01*
X145975500Y-62431616D01*
X145975500Y-61918384D01*
X145969086Y-61847804D01*
X145918478Y-61685394D01*
X145830472Y-61539815D01*
X145830470Y-61539813D01*
X145830469Y-61539811D01*
X145786819Y-61496161D01*
X145753334Y-61434838D01*
X145750500Y-61408480D01*
X145750500Y-60313732D01*
X145770185Y-60246693D01*
X145822989Y-60200938D01*
X145835495Y-60196026D01*
X145869334Y-60184814D01*
X146018656Y-60092712D01*
X146142712Y-59968656D01*
X146234814Y-59819334D01*
X146289999Y-59652797D01*
X146300500Y-59550009D01*
X146300499Y-58349992D01*
X146289999Y-58247203D01*
X146234814Y-58080666D01*
X146142712Y-57931344D01*
X146018656Y-57807288D01*
X145881119Y-57722455D01*
X145869336Y-57715187D01*
X145869331Y-57715185D01*
X145867862Y-57714698D01*
X145702797Y-57660001D01*
X145702795Y-57660000D01*
X145600010Y-57649500D01*
X144399998Y-57649500D01*
X144399981Y-57649501D01*
X144297203Y-57660000D01*
X144297200Y-57660001D01*
X144130668Y-57715185D01*
X144130663Y-57715187D01*
X143981342Y-57807289D01*
X143857289Y-57931342D01*
X143765187Y-58080663D01*
X143765186Y-58080666D01*
X143710001Y-58247203D01*
X143710001Y-58247204D01*
X143710000Y-58247204D01*
X143699500Y-58349983D01*
X143699500Y-59550001D01*
X143699501Y-59550018D01*
X143710000Y-59652796D01*
X143710001Y-59652799D01*
X143765185Y-59819331D01*
X143765186Y-59819334D01*
X143857288Y-59968656D01*
X143981344Y-60092712D01*
X144130666Y-60184814D01*
X144164500Y-60196025D01*
X144221947Y-60235796D01*
X144248772Y-60300311D01*
X144249500Y-60313732D01*
X144249500Y-61408480D01*
X144229815Y-61475519D01*
X144213181Y-61496161D01*
X144169531Y-61539810D01*
X144169530Y-61539811D01*
X144081522Y-61685393D01*
X144030913Y-61847807D01*
X144026343Y-61898102D01*
X144024994Y-61912954D01*
X144024500Y-61918386D01*
X144024500Y-62431613D01*
X144030913Y-62502192D01*
X144081522Y-62664606D01*
X144169530Y-62810188D01*
X144271661Y-62912319D01*
X144305146Y-62973642D01*
X144300162Y-63043334D01*
X144271661Y-63087681D01*
X144169531Y-63189810D01*
X144169530Y-63189811D01*
X144081522Y-63335393D01*
X144030913Y-63497807D01*
X144024500Y-63568386D01*
X144024500Y-64081613D01*
X144030913Y-64152192D01*
X144030913Y-64152194D01*
X144030914Y-64152196D01*
X144081522Y-64314606D01*
X144169530Y-64460188D01*
X144213180Y-64503837D01*
X144246666Y-64565160D01*
X144249500Y-64591519D01*
X144249500Y-66662769D01*
X144229815Y-66729808D01*
X144213181Y-66750450D01*
X141275450Y-69688181D01*
X141214127Y-69721666D01*
X141187769Y-69724500D01*
X140812230Y-69724500D01*
X140745191Y-69704815D01*
X140724549Y-69688181D01*
X136041054Y-65004686D01*
X136007569Y-64943363D01*
X136012553Y-64873671D01*
X136054425Y-64817738D01*
X136104544Y-64795388D01*
X136162331Y-64783892D01*
X136233497Y-64769737D01*
X136379179Y-64709394D01*
X136510289Y-64621789D01*
X136621789Y-64510289D01*
X136709394Y-64379179D01*
X136754547Y-64270165D01*
X136781423Y-64229943D01*
X140724549Y-60286818D01*
X140785872Y-60253333D01*
X140812230Y-60250499D01*
X141600002Y-60250499D01*
X141600008Y-60250499D01*
X141702797Y-60239999D01*
X141869334Y-60184814D01*
X142018656Y-60092712D01*
X142142712Y-59968656D01*
X142234814Y-59819334D01*
X142289999Y-59652797D01*
X142300500Y-59550009D01*
X142300499Y-58349992D01*
X142289999Y-58247203D01*
X142234814Y-58080666D01*
X142142712Y-57931344D01*
X142018656Y-57807288D01*
X141881119Y-57722455D01*
X141869336Y-57715187D01*
X141869331Y-57715185D01*
X141867862Y-57714698D01*
X141702797Y-57660001D01*
X141702795Y-57660000D01*
X141600010Y-57649500D01*
X140399998Y-57649500D01*
X140399981Y-57649501D01*
X140297203Y-57660000D01*
X140297200Y-57660001D01*
X140130668Y-57715185D01*
X140130663Y-57715187D01*
X139981342Y-57807289D01*
X139857289Y-57931342D01*
X139765187Y-58080663D01*
X139765186Y-58080666D01*
X139710001Y-58247203D01*
X139710001Y-58247204D01*
X139710000Y-58247204D01*
X139699500Y-58349983D01*
X139699500Y-59137769D01*
X139679815Y-59204808D01*
X139663181Y-59225450D01*
X135560759Y-63327871D01*
X135541970Y-63343291D01*
X135489713Y-63378208D01*
X135489705Y-63378215D01*
X135378213Y-63489707D01*
X135378210Y-63489711D01*
X135290609Y-63620814D01*
X135290602Y-63620827D01*
X135230264Y-63766498D01*
X135230261Y-63766508D01*
X135204611Y-63895456D01*
X135172225Y-63957367D01*
X135111509Y-63991941D01*
X135041740Y-63988200D01*
X134995313Y-63958945D01*
X134553421Y-63517052D01*
X134553414Y-63517046D01*
X134468412Y-63460250D01*
X134468313Y-63460185D01*
X134430495Y-63434916D01*
X134430494Y-63434915D01*
X134430492Y-63434914D01*
X134293917Y-63378343D01*
X134293907Y-63378340D01*
X134148920Y-63349500D01*
X134148918Y-63349500D01*
X131094828Y-63349500D01*
X131060233Y-63344576D01*
X130915073Y-63302402D01*
X130915067Y-63302401D01*
X130878201Y-63299500D01*
X130878194Y-63299500D01*
X130449729Y-63299500D01*
X130382690Y-63279815D01*
X130362048Y-63263181D01*
X127690921Y-60592052D01*
X127690920Y-60592051D01*
X127588089Y-60523343D01*
X127588088Y-60523342D01*
X127567995Y-60509916D01*
X127567991Y-60509914D01*
X127567989Y-60509913D01*
X127431417Y-60453343D01*
X127431407Y-60453340D01*
X127286420Y-60424500D01*
X127286418Y-60424500D01*
X125752977Y-60424500D01*
X125688828Y-60406617D01*
X125564606Y-60331522D01*
X125402196Y-60280914D01*
X125402194Y-60280913D01*
X125402192Y-60280913D01*
X125352778Y-60276423D01*
X125331616Y-60274500D01*
X124668384Y-60274500D01*
X124649145Y-60276248D01*
X124597807Y-60280913D01*
X124435393Y-60331522D01*
X124289811Y-60419530D01*
X124169530Y-60539811D01*
X124081522Y-60685393D01*
X124030913Y-60847807D01*
X124024500Y-60918386D01*
X124024500Y-61431613D01*
X124030913Y-61502192D01*
X124030913Y-61502194D01*
X124030914Y-61502196D01*
X124081522Y-61664606D01*
X124156884Y-61789270D01*
X124169530Y-61810188D01*
X124271661Y-61912319D01*
X124305146Y-61973642D01*
X124300162Y-62043334D01*
X124271661Y-62087681D01*
X124169531Y-62189810D01*
X124169530Y-62189811D01*
X124081522Y-62335393D01*
X124030913Y-62497807D01*
X124024500Y-62568386D01*
X124024500Y-63081613D01*
X124030913Y-63152192D01*
X124030913Y-63152194D01*
X124030914Y-63152196D01*
X124060355Y-63246677D01*
X124060654Y-63264870D01*
X124065962Y-63282274D01*
X124061217Y-63299077D01*
X124061505Y-63316536D01*
X124051921Y-63332003D01*
X124046977Y-63349514D01*
X124033901Y-63361084D01*
X124024704Y-63375928D01*
X124008278Y-63383758D01*
X123994652Y-63395817D01*
X123977396Y-63398481D01*
X123961635Y-63405996D01*
X123943583Y-63403703D01*
X123925601Y-63406480D01*
X123899658Y-63398123D01*
X123892322Y-63397192D01*
X123891635Y-63396890D01*
X123882533Y-63392847D01*
X123879179Y-63390606D01*
X123854076Y-63380208D01*
X123852642Y-63379571D01*
X123848819Y-63376327D01*
X123815295Y-63353927D01*
X122878421Y-62417052D01*
X122878420Y-62417051D01*
X122772958Y-62346585D01*
X122772956Y-62346582D01*
X122756210Y-62335394D01*
X122755495Y-62334916D01*
X122755493Y-62334915D01*
X122755490Y-62334913D01*
X122618917Y-62278343D01*
X122618907Y-62278340D01*
X122473920Y-62249500D01*
X122473918Y-62249500D01*
X110365863Y-62249500D01*
X110298824Y-62229815D01*
X110253069Y-62177011D01*
X110243125Y-62107853D01*
X110266597Y-62051188D01*
X110303352Y-62002089D01*
X110303354Y-62002086D01*
X110353596Y-61867379D01*
X110353598Y-61867372D01*
X110359999Y-61807844D01*
X110360000Y-61807827D01*
X110360000Y-60170000D01*
X107150000Y-60170000D01*
X107150000Y-61789270D01*
X107143761Y-61810515D01*
X107142182Y-61832604D01*
X107134109Y-61843387D01*
X107130315Y-61856309D01*
X107113581Y-61870808D01*
X107100310Y-61888537D01*
X107087689Y-61893244D01*
X107077511Y-61902064D01*
X107055593Y-61905215D01*
X107034846Y-61912954D01*
X107021685Y-61910091D01*
X107008353Y-61912008D01*
X106988209Y-61902808D01*
X106966573Y-61898102D01*
X106948847Y-61884833D01*
X106944797Y-61882983D01*
X106938319Y-61876951D01*
X106886818Y-61825450D01*
X106853333Y-61764127D01*
X106850499Y-61737769D01*
X106850499Y-58032155D01*
X107150000Y-58032155D01*
X107150000Y-59670000D01*
X108505000Y-59670000D01*
X109005000Y-59670000D01*
X110360000Y-59670000D01*
X110360000Y-58032172D01*
X110359999Y-58032155D01*
X110353598Y-57972627D01*
X110353596Y-57972620D01*
X110303354Y-57837913D01*
X110303350Y-57837906D01*
X110217190Y-57722812D01*
X110217187Y-57722809D01*
X110102093Y-57636649D01*
X110102086Y-57636645D01*
X109967379Y-57586403D01*
X109967372Y-57586401D01*
X109907844Y-57580000D01*
X109005000Y-57580000D01*
X109005000Y-59670000D01*
X108505000Y-59670000D01*
X108505000Y-57580000D01*
X107602155Y-57580000D01*
X107542627Y-57586401D01*
X107542620Y-57586403D01*
X107407913Y-57636645D01*
X107407906Y-57636649D01*
X107292812Y-57722809D01*
X107292809Y-57722812D01*
X107206649Y-57837906D01*
X107206645Y-57837913D01*
X107156403Y-57972620D01*
X107156401Y-57972627D01*
X107150000Y-58032155D01*
X106850499Y-58032155D01*
X106850499Y-58032129D01*
X106850498Y-58032123D01*
X106850497Y-58032116D01*
X106844091Y-57972517D01*
X106828734Y-57931344D01*
X106793797Y-57837671D01*
X106793793Y-57837664D01*
X106707547Y-57722455D01*
X106707544Y-57722452D01*
X106592335Y-57636206D01*
X106592328Y-57636202D01*
X106457482Y-57585908D01*
X106457483Y-57585908D01*
X106397883Y-57579501D01*
X106397881Y-57579500D01*
X106397873Y-57579500D01*
X106397864Y-57579500D01*
X104092129Y-57579500D01*
X104092123Y-57579501D01*
X104032516Y-57585908D01*
X103897671Y-57636202D01*
X103897664Y-57636206D01*
X103782455Y-57722452D01*
X103782452Y-57722455D01*
X103696206Y-57837664D01*
X103696202Y-57837671D01*
X103645908Y-57972517D01*
X103639501Y-58032116D01*
X103639501Y-58032123D01*
X103639500Y-58032135D01*
X90500500Y-58032135D01*
X90500500Y-55098543D01*
X91974499Y-55098543D01*
X92012947Y-55291829D01*
X92012950Y-55291839D01*
X92088364Y-55473907D01*
X92088371Y-55473920D01*
X92197860Y-55637781D01*
X92197863Y-55637785D01*
X92337214Y-55777136D01*
X92337218Y-55777139D01*
X92501079Y-55886628D01*
X92501092Y-55886635D01*
X92683160Y-55962049D01*
X92683165Y-55962051D01*
X92683169Y-55962051D01*
X92683170Y-55962052D01*
X92876456Y-56000500D01*
X92876459Y-56000500D01*
X93073543Y-56000500D01*
X93203582Y-55974632D01*
X93266835Y-55962051D01*
X93448914Y-55886632D01*
X93612782Y-55777139D01*
X93752139Y-55637782D01*
X93777393Y-55599986D01*
X97675001Y-55599986D01*
X97685494Y-55702697D01*
X97740641Y-55869119D01*
X97740643Y-55869124D01*
X97832684Y-56018345D01*
X97956654Y-56142315D01*
X98105875Y-56234356D01*
X98105880Y-56234358D01*
X98272302Y-56289505D01*
X98272309Y-56289506D01*
X98375019Y-56299999D01*
X98724999Y-56299999D01*
X99225000Y-56299999D01*
X99574972Y-56299999D01*
X99574986Y-56299998D01*
X99677697Y-56289505D01*
X99844119Y-56234358D01*
X99844124Y-56234356D01*
X99993345Y-56142315D01*
X100117315Y-56018345D01*
X100209356Y-55869124D01*
X100209358Y-55869119D01*
X100264505Y-55702697D01*
X100264506Y-55702690D01*
X100274999Y-55599986D01*
X100275000Y-55599973D01*
X100275000Y-55250000D01*
X99225000Y-55250000D01*
X99225000Y-56299999D01*
X98724999Y-56299999D01*
X98725000Y-56299998D01*
X98725000Y-55250000D01*
X97675001Y-55250000D01*
X97675001Y-55599986D01*
X93777393Y-55599986D01*
X93861632Y-55473914D01*
X93937051Y-55291835D01*
X93947350Y-55240060D01*
X93960402Y-55174446D01*
X93960402Y-55174445D01*
X93975499Y-55098545D01*
X93975500Y-55098543D01*
X93975500Y-54960504D01*
X98675000Y-54960504D01*
X98675000Y-55039496D01*
X98695444Y-55115796D01*
X98734940Y-55184205D01*
X98790795Y-55240060D01*
X98859204Y-55279556D01*
X98935504Y-55300000D01*
X99014496Y-55300000D01*
X99090796Y-55279556D01*
X99159205Y-55240060D01*
X99215060Y-55184205D01*
X99254556Y-55115796D01*
X99275000Y-55039496D01*
X99275000Y-54960504D01*
X99254556Y-54884204D01*
X99215060Y-54815795D01*
X99159205Y-54759940D01*
X99141988Y-54750000D01*
X99225000Y-54750000D01*
X100274999Y-54750000D01*
X100274999Y-54400028D01*
X100274998Y-54400013D01*
X100264505Y-54297302D01*
X100209358Y-54130880D01*
X100209354Y-54130872D01*
X100117315Y-53981654D01*
X99993345Y-53857684D01*
X99844124Y-53765643D01*
X99844119Y-53765641D01*
X99677697Y-53710494D01*
X99677690Y-53710493D01*
X99574986Y-53700000D01*
X99225000Y-53700000D01*
X99225000Y-54750000D01*
X99141988Y-54750000D01*
X99090796Y-54720444D01*
X99014496Y-54700000D01*
X98935504Y-54700000D01*
X98859204Y-54720444D01*
X98790795Y-54759940D01*
X98734940Y-54815795D01*
X98695444Y-54884204D01*
X98675000Y-54960504D01*
X93975500Y-54960504D01*
X93975500Y-54901456D01*
X93937052Y-54708170D01*
X93937051Y-54708169D01*
X93937051Y-54708165D01*
X93933669Y-54700000D01*
X93861635Y-54526092D01*
X93861625Y-54526074D01*
X93821322Y-54465756D01*
X93821321Y-54465755D01*
X93777393Y-54400013D01*
X97675000Y-54400013D01*
X97675000Y-54750000D01*
X98725000Y-54750000D01*
X98725000Y-53700000D01*
X98375028Y-53700000D01*
X98375012Y-53700001D01*
X98272302Y-53710494D01*
X98105880Y-53765641D01*
X98105875Y-53765643D01*
X97956654Y-53857684D01*
X97832684Y-53981654D01*
X97740646Y-54130872D01*
X97740641Y-54130880D01*
X97685494Y-54297302D01*
X97685493Y-54297309D01*
X97675000Y-54400013D01*
X93777393Y-54400013D01*
X93752139Y-54362218D01*
X93752136Y-54362214D01*
X93612785Y-54222863D01*
X93612781Y-54222860D01*
X93448920Y-54113371D01*
X93448907Y-54113364D01*
X93266839Y-54037950D01*
X93266829Y-54037947D01*
X93073543Y-53999500D01*
X93073541Y-53999500D01*
X92876459Y-53999500D01*
X92876457Y-53999500D01*
X92683170Y-54037947D01*
X92683160Y-54037950D01*
X92501092Y-54113364D01*
X92501079Y-54113371D01*
X92337218Y-54222860D01*
X92337214Y-54222863D01*
X92197863Y-54362214D01*
X92197860Y-54362218D01*
X92088371Y-54526079D01*
X92088364Y-54526092D01*
X92012950Y-54708160D01*
X92012947Y-54708170D01*
X91974500Y-54901456D01*
X91974500Y-54901459D01*
X91974500Y-55098541D01*
X91974500Y-55098543D01*
X91974499Y-55098543D01*
X90500500Y-55098543D01*
X90500500Y-53048543D01*
X139999499Y-53048543D01*
X140037947Y-53241829D01*
X140037950Y-53241839D01*
X140113364Y-53423907D01*
X140113371Y-53423920D01*
X140222860Y-53587781D01*
X140222863Y-53587785D01*
X140362214Y-53727136D01*
X140362218Y-53727139D01*
X140526079Y-53836628D01*
X140526092Y-53836635D01*
X140708160Y-53912049D01*
X140708165Y-53912051D01*
X140708169Y-53912051D01*
X140708170Y-53912052D01*
X140901456Y-53950500D01*
X140901459Y-53950500D01*
X141098543Y-53950500D01*
X141228582Y-53924632D01*
X141291835Y-53912051D01*
X141473914Y-53836632D01*
X141637782Y-53727139D01*
X141777139Y-53587782D01*
X141886632Y-53423914D01*
X141962051Y-53241835D01*
X142000500Y-53048543D01*
X143999499Y-53048543D01*
X144037947Y-53241829D01*
X144037950Y-53241839D01*
X144113364Y-53423907D01*
X144113371Y-53423920D01*
X144222860Y-53587781D01*
X144222863Y-53587785D01*
X144362214Y-53727136D01*
X144362218Y-53727139D01*
X144526079Y-53836628D01*
X144526092Y-53836635D01*
X144708160Y-53912049D01*
X144708165Y-53912051D01*
X144708169Y-53912051D01*
X144708170Y-53912052D01*
X144901456Y-53950500D01*
X144901459Y-53950500D01*
X145098543Y-53950500D01*
X145228582Y-53924632D01*
X145291835Y-53912051D01*
X145473914Y-53836632D01*
X145637782Y-53727139D01*
X145777139Y-53587782D01*
X145886632Y-53423914D01*
X145962051Y-53241835D01*
X146000500Y-53048541D01*
X146000500Y-52851459D01*
X146000500Y-52851456D01*
X145962052Y-52658170D01*
X145962051Y-52658169D01*
X145962051Y-52658165D01*
X145962049Y-52658160D01*
X145886635Y-52476092D01*
X145886628Y-52476079D01*
X145777139Y-52312218D01*
X145777136Y-52312214D01*
X145637785Y-52172863D01*
X145637781Y-52172860D01*
X145473920Y-52063371D01*
X145473907Y-52063364D01*
X145291839Y-51987950D01*
X145291829Y-51987947D01*
X145098543Y-51949500D01*
X145098541Y-51949500D01*
X144901459Y-51949500D01*
X144901457Y-51949500D01*
X144708170Y-51987947D01*
X144708160Y-51987950D01*
X144526092Y-52063364D01*
X144526079Y-52063371D01*
X144362218Y-52172860D01*
X144362214Y-52172863D01*
X144222863Y-52312214D01*
X144222860Y-52312218D01*
X144113371Y-52476079D01*
X144113364Y-52476092D01*
X144037950Y-52658160D01*
X144037947Y-52658170D01*
X143999500Y-52851456D01*
X143999500Y-52851459D01*
X143999500Y-53048541D01*
X143999500Y-53048543D01*
X143999499Y-53048543D01*
X142000500Y-53048543D01*
X142000500Y-53048541D01*
X142000500Y-52851459D01*
X142000500Y-52851456D01*
X141962052Y-52658170D01*
X141962051Y-52658169D01*
X141962051Y-52658165D01*
X141962049Y-52658160D01*
X141886635Y-52476092D01*
X141886628Y-52476079D01*
X141777139Y-52312218D01*
X141777136Y-52312214D01*
X141637785Y-52172863D01*
X141637781Y-52172860D01*
X141473920Y-52063371D01*
X141473907Y-52063364D01*
X141291839Y-51987950D01*
X141291829Y-51987947D01*
X141098543Y-51949500D01*
X141098541Y-51949500D01*
X140901459Y-51949500D01*
X140901457Y-51949500D01*
X140708170Y-51987947D01*
X140708160Y-51987950D01*
X140526092Y-52063364D01*
X140526079Y-52063371D01*
X140362218Y-52172860D01*
X140362214Y-52172863D01*
X140222863Y-52312214D01*
X140222860Y-52312218D01*
X140113371Y-52476079D01*
X140113364Y-52476092D01*
X140037950Y-52658160D01*
X140037947Y-52658170D01*
X139999500Y-52851456D01*
X139999500Y-52851459D01*
X139999500Y-53048541D01*
X139999500Y-53048543D01*
X139999499Y-53048543D01*
X90500500Y-53048543D01*
X90500500Y-50624500D01*
X90520185Y-50557461D01*
X90572989Y-50511706D01*
X90624500Y-50500500D01*
X149375500Y-50500500D01*
X149442539Y-50520185D01*
G37*
%TD.AperFunction*%
%TD*%
M02*
